<svg xmlns="http://www.w3.org/2000/svg" width="19.41" height="24.6" viewBox="0 0 19.41 24.6">
  <defs>
    <style>
      .a {
        fill: #ff3636;
      }

      .b {
        fill: none;
      }
    </style>
  </defs>
  <title>Asset 10</title>
  <g>
    <path d="M5.1,24.12A4.91,4.91,0,0,1,4.26,24a.24.24,0,0,1,.08-.48,4.44,4.44,0,0,0,1.52,0,.24.24,0,0,1,.09.48A4.92,4.92,0,0,1,5.1,24.12Zm-2.3-.61a.24.24,0,0,1-.12,0,4.87,4.87,0,0,1-1.29-1.08.24.24,0,0,1,.37-.32,4.38,4.38,0,0,0,1.16,1,.24.24,0,0,1-.12.46Zm4.61,0A.24.24,0,0,1,7.29,23a4.36,4.36,0,0,0,1.16-1,.24.24,0,0,1,.38.31,4.86,4.86,0,0,1-1.29,1.09A.24.24,0,0,1,7.41,23.5ZM.76,21.09a.24.24,0,0,1-.23-.16,4.83,4.83,0,0,1-.29-1.66A.24.24,0,0,1,.48,19h0a.24.24,0,0,1,.24.24A4.35,4.35,0,0,0,1,20.76a.24.24,0,0,1-.15.31Zm8.67,0H9.35a.24.24,0,0,1-.15-.31,4.36,4.36,0,0,0,.26-1.49A.25.25,0,0,1,9.71,19a.24.24,0,0,1,.24.24v0a4.84,4.84,0,0,1-.29,1.66A.24.24,0,0,1,9.44,21.08ZM.76,17.93H.67a.24.24,0,0,1-.15-.31,4.86,4.86,0,0,1,.84-1.46.24.24,0,0,1,.38.31A4.37,4.37,0,0,0,1,17.77.25.25,0,0,1,.76,17.93Zm8.67,0a.25.25,0,0,1-.23-.16,4.35,4.35,0,0,0-.76-1.31.24.24,0,0,1,.37-.32,4.85,4.85,0,0,1,.85,1.46.24.24,0,0,1-.15.31Zm-6.65-2.4a.24.24,0,0,1-.12-.46,4.82,4.82,0,0,1,1.58-.58.24.24,0,0,1,.09.48,4.33,4.33,0,0,0-1.42.52A.24.24,0,0,1,2.78,15.51Zm4.61,0a.24.24,0,0,1-.12,0,4.32,4.32,0,0,0-1.43-.51.24.24,0,1,1,.08-.48A4.81,4.81,0,0,1,7.51,15a.24.24,0,0,1-.12.46Z"/>
    <rect class="a" x="8.85" y="5" width="4.49" height="11.03" transform="translate(8.11 -4.48) rotate(35.28)"/>
    <path d="M9.74,16.73a.41.41,0,0,1-.24-.07L5.84,14.06a.41.41,0,0,1-.1-.57l6.37-9a.41.41,0,0,1,.57-.1L16.35,7a.41.41,0,0,1,.1.57l-6.37,9A.41.41,0,0,1,9.74,16.73Zm-3.09-3.1,3,2.12,5.9-8.34-3-2.12Z"/>
    <rect class="a" x="13.45" y="1.58" width="4.49" height="4.88" transform="translate(5.2 -8.32) rotate(35.28)"/>
    <path d="M16.11,7.72a.41.41,0,0,1-.24-.07L12.21,5.05a.41.41,0,0,1-.1-.57l2.82-4A.41.41,0,0,1,15.5.4L19.17,3a.41.41,0,0,1,.1.57l-2.82,4a.41.41,0,0,1-.26.17ZM13,4.62l3,2.12,2.35-3.32-3-2.12Z"/>
    <polygon class="a" points="9.74 16.32 6.08 13.73 5 19.13 9.74 16.32"/>
    <path d="M5,19.54A.41.41,0,0,1,4.6,19l1.07-5.4a.41.41,0,0,1,.64-.25L10,16a.41.41,0,0,1,0,.68L5.21,19.48A.41.41,0,0,1,5,19.54Zm1.35-5.11-.77,3.89,3.41-2Z"/>
    <rect class="b" width="19.41" height="24.6"/>
  </g>
</svg>
