<svg xmlns="http://www.w3.org/2000/svg" width="19.41" height="25.32" viewBox="0 0 19.41 25.32">
  <defs>
    <style>
      .a {
        fill: none;
      }

      .b {
        fill: #b0bec5;
      }

      .c {
        fill: #fff;
      }
    </style>
  </defs>
  <title>Asset 2</title>
  <g>
    <rect class="a" y="0.72" width="19.41" height="24.6"/>
    <path class="b" d="M9.71,22.47a5,5,0,1,1,5-5A5,5,0,0,1,9.71,22.47Zm0-9.23a4.21,4.21,0,1,0,4.21,4.21A4.21,4.21,0,0,0,9.71,13.24Z"/>
    <line class="c" x1="9.71" y1="10.69" x2="9.71" y2="0.41"/>
    <path class="b" d="M9.71,11.09a.41.41,0,0,1-.41-.41V.41a.41.41,0,1,1,.82,0V10.69A.41.41,0,0,1,9.71,11.09Z"/>
    <line class="c" x1="5.09" y1="12.4" x2="5.09" y2="5.26"/>
    <path class="b" d="M5.09,12.81a.41.41,0,0,1-.41-.41V5.26a.41.41,0,1,1,.82,0V12.4A.41.41,0,0,1,5.09,12.81Z"/>
    <line class="c" x1="14.32" y1="12.4" x2="14.32" y2="5.26"/>
    <path class="b" d="M14.32,12.81a.41.41,0,0,1-.41-.41V5.26a.41.41,0,1,1,.82,0V12.4A.41.41,0,0,1,14.32,12.81Z"/>
    <path class="b" d="M4.16,24.91a.41.41,0,0,1,.41-.41H14.85a.41.41,0,1,1,0,.82H4.57A.41.41,0,0,1,4.16,24.91Z"/>
  </g>
</svg>
