<svg xmlns="http://www.w3.org/2000/svg" width="19.41" height="24.6" viewBox="0 0 19.41 24.6">
  <defs>
    <style>
      .a {
        fill: #64cfff;
      }

      .b {
        fill: none;
      }
    </style>
  </defs>
  <title>Asset 12</title>
  <g>
    <path class="a" d="M15,17.81V19a8.93,8.93,0,0,1-10.42.11V17.81a3.32,3.32,0,0,1,3.32-3.32h3.77A3.32,3.32,0,0,1,15,17.81Z"/>
    <circle class="a" cx="9.71" cy="9.94" r="3.31"/>
    <path d="M9.68,3.35a8.95,8.95,0,1,0,9,9A9,9,0,0,0,9.68,3.35ZM15.3,18.17a7.83,7.83,0,0,1-.82.69A8.11,8.11,0,0,1,5,19a8.23,8.23,0,0,1-.82-.66,8.13,8.13,0,1,1,11.1-.13Z"/>
    <path d="M9.71,6.1a3.83,3.83,0,1,0,3.83,3.83A3.84,3.84,0,0,0,9.71,6.1Zm0,6.85a3,3,0,1,1,3-3A3,3,0,0,1,9.71,13Z"/>
    <path d="M15.3,17.79v1.28h-.82V17.79a3,3,0,0,0-3-3H8a3,3,0,0,0-3,3v1.38H4.2V17.79A3.84,3.84,0,0,1,8,14h3.42A3.84,3.84,0,0,1,15.3,17.79Z"/>
    <path class="b" d="M0,0V24.6H19.41V0ZM6.69,9.94a3,3,0,1,1,3,3A3,3,0,0,1,6.69,9.94ZM5,17.79a3,3,0,0,1,3-3h3.42a3,3,0,0,1,3,3v1.07A8.11,8.11,0,0,1,5,19Z"/>
  </g>
</svg>
