<svg xmlns="http://www.w3.org/2000/svg" width="51.33" height="51.36" viewBox="0 0 51.33 51.36">
  <defs>
    <style>
      .a {
        fill: #fff8e1;
      }

      .b {
        fill: #ffebb1;
      }

      .c {
        fill: #ffe080;
      }

      .d {
        fill: #424243;
      }

      .e {
        fill: #bdbcbc;
      }

      .f {
        fill: #f7bace;
      }

      .g {
        fill: #e0e0e0;
      }

      .h {
        fill: #f9ccd2;
      }

      .i {
        fill: #eee;
      }

      .j {
        fill: #fcd736;
      }

      .k {
        fill: #fbb216;
      }

      .l {
        fill: #f9a528;
      }
    </style>
  </defs>
  <title>Asset 4</title>
  <g>
    <path class="a" d="M26.18,45.86,10.57,49.12c0-.79-6-8.46-8.35-8.35L5.48,25.16c6.58-4.1,12.95-7.35,15.36,5.34,4.34.82,6.82,2.1,8,3.71a5.1,5.1,0,0,1,.82,4.34C29.22,40.8,27.77,43.31,26.18,45.86Z"/>
    <polyline class="b" points="0.04 51.29 12.54 31.89 23.63 31.16 26.34 45.69"/>
    <polygon class="c" points="19.44 38.79 0.04 51.29 26.34 45.69 28.03 38.79 19.44 38.79"/>
    <path class="d" d="M10.56,49.11.07,51.31l0,0v0H0l0,0,2.2-10.49a6.13,6.13,0,0,1,1.31.42,11.19,11.19,0,0,1,2,1,11.67,11.67,0,0,1,2,1.56A11.24,11.24,0,0,1,9,45.57a10.78,10.78,0,0,1,1.59,3.52Z"/>
    <path class="e" d="M0,51.29,3.56,41.21a11.19,11.19,0,0,1,2,1Z"/>
    <rect class="f" x="39.35" y="6.15" width="5.96" height="19.51" transform="translate(1.15 34.59) rotate(-45)"/>
    <rect class="g" x="35.13" y="10.36" width="5.96" height="19.52" transform="translate(-3.07 32.84) rotate(-45)"/>
    <rect class="h" x="29" y="0.68" width="5.96" height="9.76" transform="translate(5.43 24.24) rotate(-45)"/>
    <rect class="i" x="24.78" y="4.89" width="5.96" height="9.76" transform="translate(1.22 22.49) rotate(-45)"/>
    <g>
      <path class="j" d="M22.2,8.43,5.64,25c4,.22,6.57,2.88,6.9,6.9L29.1,15.33Z"/>
      <path class="k" d="M29.1,15.33,12.54,31.89c4,.22,6.57,2.88,6.9,6.9L36,22.23Z"/>
      <path class="l" d="M36,22.23,19.44,38.79c4,.22,6.57,2.88,6.9,6.9L42.9,29.13Z"/>
    </g>
  </g>
</svg>
