<svg xmlns="http://www.w3.org/2000/svg" width="41.84" height="55.06" viewBox="0 0 41.84 55.06">
  <defs>
    <style>
      .a {
        fill: #bdcfe6;
      }

      .b {
        fill: #a1b3d6;
      }

      .c {
        fill: #8fa1c4;
      }

      .d, .e {
        fill: #d6e6e6;
      }

      .d {
        opacity: 0.53;
      }
    </style>
  </defs>
  <title>Asset 1</title>
  <g>
    <path class="a" d="M39.39,50c0,6.73-36.93,6.73-36.93,0V10.66c0,4.45,36.93,4.45,36.93,0Z"/>
    <path class="b" d="M39.4,10.66V50a1.51,1.51,0,0,1,0,.29,1.22,1.22,0,0,1-.06.25l-.05.15s0,0,0,0a2.37,2.37,0,0,1-.28.44,6.78,6.78,0,0,1-1.86,1.43l-.13.07C34.11,54,29.12,54.81,24.61,55V14c6.89-.2,13.91-1.19,14.71-3A.77.77,0,0,0,39.4,10.66Z"/>
    <g>
      <path class="b" d="M22.56,21V49A1.59,1.59,0,0,1,21,50.62h-.11A1.59,1.59,0,0,1,19.29,49V21a1.61,1.61,0,0,1,1.62-1.6h0A1.61,1.61,0,0,1,22.56,21Z"/>
      <path class="b" d="M15.6,20.64v28a1.6,1.6,0,0,1-1.76,1.6h-.07a1.6,1.6,0,0,1-1.44-1.6v-28A1.6,1.6,0,0,1,14.09,19h.07A1.6,1.6,0,0,1,15.6,20.64Z"/>
      <path class="c" d="M29.52,20.63v28a1.6,1.6,0,0,1-1.44,1.6H28a1.6,1.6,0,0,1-1.76-1.6v-28A1.6,1.6,0,0,1,27.69,19h.07A1.6,1.6,0,0,1,29.52,20.63Z"/>
      <path class="c" d="M36.48,19.42V47.34a1.59,1.59,0,0,1-1.08,1.51l-.13,0a1.6,1.6,0,0,1-2.07-1.53V19.44a1.61,1.61,0,0,1,1.19-1.54l.07,0A1.59,1.59,0,0,1,36.48,19.42Z"/>
      <path class="b" d="M8.65,19.44V47.36a1.6,1.6,0,0,1-2.07,1.53l-.13,0a1.59,1.59,0,0,1-1.07-1.51V19.42a1.59,1.59,0,0,1,2-1.54l.07,0A1.61,1.61,0,0,1,8.65,19.44Z"/>
    </g>
    <path class="d" d="M6.48,14.64c-1.39-.45-2.22-1-2.22-1.64V50.62c0,1,2.22,1.46,2.22,1.46Z"/>
    <path class="b" d="M0,11.09c0,6.81,41.84,6.81,41.84,0V5.63H0Z"/>
    <path class="c" d="M25.83,5.63a13.68,13.68,0,0,1,1.3,4.9L27,16c8.06-.54,14.8-2.17,14.8-4.91V5.63Z"/>
    <path class="a" d="M41.84,5.63c0,6.81-41.84,6.81-41.84,0C0,1.09,41.84,1.09,41.84,5.63Z"/>
    <path class="e" d="M40.34,6C38.46,2.7,17,1.78,6.69,3.74,19.63,2.21,36.59,3.94,40.34,6Z"/>
    <polygon class="c" points="26.28 1.11 27.28 0.14 27.14 7.06 26.16 7.47 26.28 1.11"/>
    <polygon class="c" points="15.81 0.99 16.83 0.01 16.79 7.05 15.78 7.47 15.81 0.99"/>
    <polygon class="a" points="26.28 1.11 14.74 0.98 16.13 0 27.28 0.14 26.28 1.11"/>
    <polygon class="b" points="26.28 1.11 26.16 7.47 25.13 7.47 25.21 2.78 15.81 2.7 15.79 7.47 14.72 7.47 14.74 0.98 26.28 1.11"/>
  </g>
</svg>
