<svg xmlns="http://www.w3.org/2000/svg" xmlns:xlink="http://www.w3.org/1999/xlink" width="114" height="128" viewBox="0 0 114 128">
  <defs>
    <style>
      .a {
        fill: #bdcfe6;
      }

      .b {
        fill: #a1b3d6;
      }

      .c {
        fill: #8fa1c4;
      }

      .d, .e {
        fill: #d6e6e6;
      }

      .d {
        opacity: 0.53;
      }
    </style>
  </defs>
  <title>Asset 9</title>
  <g>
    <image width="114" height="128" xlink:href="Asset 91.png"/>
    <g>
      <path class="a" d="M76.32,86.95c0,6.73-36.93,6.73-36.93,0V47.59c0,4.45,36.93,4.45,36.93,0Z"/>
      <path class="b" d="M76.32,47.59V86.95a1.51,1.51,0,0,1,0,.29,1.22,1.22,0,0,1-.06.25l-.05.15s0,0,0,0a2.37,2.37,0,0,1-.28.44A6.78,6.78,0,0,1,74,89.55l-.13.07C71,91,66,91.74,61.53,91.94v-41c6.89-.2,13.91-1.19,14.71-3A.77.77,0,0,0,76.32,47.59Z"/>
      <g>
        <path class="b" d="M59.49,57.89V85.95a1.59,1.59,0,0,1-1.58,1.6h-.11a1.59,1.59,0,0,1-1.58-1.6V57.89a1.61,1.61,0,0,1,1.62-1.6h0A1.61,1.61,0,0,1,59.49,57.89Z"/>
        <path class="b" d="M52.53,57.56v28a1.6,1.6,0,0,1-1.76,1.6h-.07a1.6,1.6,0,0,1-1.44-1.6v-28A1.6,1.6,0,0,1,51,56h.07A1.6,1.6,0,0,1,52.53,57.56Z"/>
        <path class="c" d="M66.44,57.56v28A1.6,1.6,0,0,1,65,87.2h-.07a1.6,1.6,0,0,1-1.76-1.6v-28A1.6,1.6,0,0,1,64.62,56h.07A1.6,1.6,0,0,1,66.44,57.56Z"/>
        <path class="c" d="M73.4,56.35V84.27a1.59,1.59,0,0,1-1.08,1.51l-.13,0a1.6,1.6,0,0,1-2.07-1.53V56.37a1.61,1.61,0,0,1,1.19-1.54l.07,0A1.59,1.59,0,0,1,73.4,56.35Z"/>
        <path class="b" d="M45.57,56.37V84.29a1.6,1.6,0,0,1-2.07,1.53l-.13,0a1.59,1.59,0,0,1-1.07-1.51V56.35a1.59,1.59,0,0,1,2-1.54l.07,0A1.61,1.61,0,0,1,45.57,56.37Z"/>
      </g>
      <path class="d" d="M43.41,51.57c-1.39-.45-2.22-1-2.22-1.64V87.55c0,1,2.22,1.46,2.22,1.46Z"/>
      <path class="b" d="M36.93,48c0,6.81,41.84,6.81,41.84,0V42.56H36.93Z"/>
      <path class="c" d="M62.75,42.56a13.68,13.68,0,0,1,1.3,4.9L64,52.92c8.06-.54,14.8-2.17,14.8-4.91V42.56Z"/>
      <path class="a" d="M78.77,42.56c0,6.81-41.84,6.81-41.84,0C36.93,38,78.77,38,78.77,42.56Z"/>
      <path class="e" d="M77.26,42.95c-1.88-3.32-23.37-4.24-33.65-2.28C56.55,39.14,73.52,40.87,77.26,42.95Z"/>
      <polygon class="c" points="63.21 38.04 64.2 37.07 64.07 43.99 63.09 44.4 63.21 38.04"/>
      <polygon class="c" points="52.74 37.92 53.76 36.94 53.72 43.98 52.71 44.4 52.74 37.92"/>
      <polygon class="a" points="63.21 38.04 51.66 37.91 53.06 36.93 64.2 37.07 63.21 38.04"/>
      <polygon class="b" points="63.21 38.04 63.09 44.4 62.05 44.4 62.13 39.71 52.73 39.63 52.71 44.4 51.65 44.4 51.66 37.91 63.21 38.04"/>
    </g>
  </g>
</svg>
