<svg xmlns="http://www.w3.org/2000/svg" width="49.35" height="52.49" viewBox="0 0 49.35 52.49">
  <defs>
    <style>
      .a {
        fill: #26d3c7;
      }

      .b {
        fill: #248c9f;
      }

      .c {
        fill: #56f4e8;
      }
    </style>
  </defs>
  <title>Asset 3</title>
  <g>
    <circle class="a" cx="7.61" cy="39.65" r="7.6" transform="translate(-32.66 36.75) rotate(-75.02)"/>
    <path class="b" d="M13.08,44.92A7.6,7.6,0,1,1,4.74,32.61a7.6,7.6,0,0,0,8.35,12.31Z"/>
    <path class="c" d="M8.53,33.7a8,8,0,0,1,5.23,4.79l.53-.23a7.78,7.78,0,0,0-5.13-4.94,5.64,5.64,0,0,0-3.51.28l.23.06h0A5.83,5.83,0,0,1,8.53,33.7Z"/>
    <path class="a" d="M8.36,33.91l10.83-24a2,2,0,0,1,2.66-.94l0,0a2,2,0,0,1,.9,2.55l-10.88,24a2,2,0,0,1-3,.75H9A2,2,0,0,1,8.36,33.91Z"/>
    <path class="b" d="M9,36.27H9a2,2,0,0,1-.6-2.36l10.83-24a2,2,0,0,1,2.66-.94l0,0Z"/>
    <path class="a" d="M12.41,38.58,38.7,40.76A2,2,0,0,1,40.47,43V43a2,2,0,0,1-2.1,1.7L12.09,42.47a2,2,0,0,1-1.7-2.54h0A2,2,0,0,1,12.41,38.58Z"/>
    <circle class="a" cx="21.18" cy="9.13" r="9.13" transform="translate(6.1 26.59) rotate(-72.5)"/>
    <path class="b" d="M27.47,15.74A9.13,9.13,0,1,1,18.11.54a9.12,9.12,0,0,0,3.54,15.32A9,9,0,0,0,27.47,15.74Z"/>
    <path class="a" d="M39,35.54,26,12.62a2,2,0,0,0-2.74-.69l0,0a2,2,0,0,0-.65,2.62L35.65,37.47a2,2,0,0,0,3,.47h0A2,2,0,0,0,39,35.54Z"/>
    <path class="b" d="M40.19,43.76a1.92,1.92,0,0,1-1.83.94L12.09,42.47a2,2,0,0,1-1.78-1.7Z"/>
    <path class="b" d="M37.88,38.38a1.94,1.94,0,0,1-2.23-.9L22.56,14.58a2,2,0,0,1,.26-2.29Z"/>
    <circle class="a" cx="39.44" cy="42.59" r="9.9" transform="translate(-10.35 72.42) rotate(-78.13)"/>
    <path class="b" d="M48,47.56a9.9,9.9,0,1,1-14.36-13A9.9,9.9,0,0,0,48,47.56Z"/>
    <path class="c" d="M39.83,34.49a9.65,9.65,0,0,1,6.83,5.1l.61-.34A9.35,9.35,0,0,0,40.54,34a6.78,6.78,0,0,0-4.16.76l.29,0h0A7,7,0,0,1,39.83,34.49Z"/>
    <path class="c" d="M23.72,1.74a9.65,9.65,0,0,1,5,6.92l.69-.14a9.35,9.35,0,0,0-4.82-7.07,6.78,6.78,0,0,0-4.2-.53l.26.13h0A7,7,0,0,1,23.72,1.74Z"/>
  </g>
</svg>
