<svg xmlns="http://www.w3.org/2000/svg" xmlns:xlink="http://www.w3.org/1999/xlink" width="122" height="125" viewBox="0 0 122 125">
  <defs>
    <style>
      .a {
        fill: #26d3c7;
      }

      .b {
        fill: #248c9f;
      }

      .c {
        fill: #56f4e8;
      }
    </style>
  </defs>
  <title>Asset 7</title>
  <g>
    <image width="122" height="125" xlink:href="Asset 71.png"/>
    <g>
      <circle class="a" cx="44.8" cy="75.99" r="7.6" transform="translate(-40.19 99.63) rotate(-75.02)"/>
      <path class="b" d="M50.28,81.26a7.6,7.6,0,1,1-8.35-12.31,7.6,7.6,0,0,0,8.35,12.31Z"/>
      <path class="c" d="M45.72,70A8,8,0,0,1,51,74.82l.53-.23a7.78,7.78,0,0,0-5.13-4.94,5.64,5.64,0,0,0-3.51.28l.23.06h0A5.83,5.83,0,0,1,45.72,70Z"/>
      <path class="a" d="M45.56,70.25l10.83-24A2,2,0,0,1,59,45.26l0,0a2,2,0,0,1,.9,2.55l-10.88,24a2,2,0,0,1-3,.75h0A2,2,0,0,1,45.56,70.25Z"/>
      <path class="b" d="M46.16,72.6h0a2,2,0,0,1-.6-2.36l10.83-24A2,2,0,0,1,59,45.26l0,0Z"/>
      <path class="a" d="M49.61,74.92,75.89,77.1a2,2,0,0,1,1.78,2.2v.05a2,2,0,0,1-2.1,1.7L49.28,78.81a2,2,0,0,1-1.7-2.54h0A2,2,0,0,1,49.61,74.92Z"/>
      <circle class="a" cx="58.37" cy="45.47" r="9.13" transform="translate(-2.54 87.47) rotate(-72.5)"/>
      <path class="b" d="M64.66,52.08a9.13,9.13,0,1,1-9.36-15.21,9.12,9.12,0,0,0,9.36,15.21Z"/>
      <path class="a" d="M76.23,71.87,63.19,49a2,2,0,0,0-2.74-.69l0,0a2,2,0,0,0-.65,2.62L72.84,73.81a2,2,0,0,0,3,.47h0A2,2,0,0,0,76.23,71.87Z"/>
      <path class="b" d="M77.38,80.1a1.92,1.92,0,0,1-1.83.94L49.28,78.81a2,2,0,0,1-1.78-1.7Z"/>
      <path class="b" d="M75.07,74.71a1.94,1.94,0,0,1-2.23-.9L59.75,50.92A2,2,0,0,1,60,48.63Z"/>
      <circle class="a" cx="76.63" cy="78.92" r="9.9" transform="translate(-16.36 137.69) rotate(-78.13)"/>
      <path class="b" d="M85.19,83.9a9.9,9.9,0,1,1-14.36-13,9.9,9.9,0,0,0,14.36,13Z"/>
      <path class="c" d="M77,70.83a9.65,9.65,0,0,1,6.83,5.1l.61-.34a9.35,9.35,0,0,0-6.73-5.29,6.78,6.78,0,0,0-4.16.76l.29,0h0A7,7,0,0,1,77,70.83Z"/>
      <path class="c" d="M60.91,38.08a9.65,9.65,0,0,1,5,6.92l.69-.14a9.35,9.35,0,0,0-4.82-7.07,6.78,6.78,0,0,0-4.2-.53l.26.13h0A7,7,0,0,1,60.91,38.08Z"/>
    </g>
  </g>
</svg>
