<svg xmlns="http://www.w3.org/2000/svg" width="49.12" height="49.13" viewBox="0 0 49.12 49.13">
  <defs>
    <style>
      .a {
        fill: #40a3d6;
      }

      .b {
        fill: #81cee9;
      }

      .c {
        fill: #cbebf6;
      }

      .d {
        fill: #ff5722;
      }

      .e {
        fill: #d84315;
      }

      .f {
        fill: #ff8b22;
      }
    </style>
  </defs>
  <title>Asset 2</title>
  <g>
    <polygon class="a" points="0 49.13 37.76 11.37 40.35 13.96 10.39 42.58 0 49.13"/>
    <polygon class="b" points="37.76 11.37 0 49.13 6.54 38.74 35.16 8.77 37.76 11.37"/>
    <polygon class="c" points="36.92 10.53 4.88 42.57 7.18 39.38 36 9.61 36.92 10.53"/>
    <path class="d" d="M11.46,18,8.41,21c-.28-.91-.26-1.59.11-2L11.57,16l.84.84Z"/>
    <path class="e" d="M33.09,37.55,30,40.6a.89.89,0,0,1-.43.24c-1.94.58-7.42-3-12.89-8.44C13,28.66,10.12,24.9,8.89,22.28l4.46-4.46Z"/>
    <path class="f" d="M13.35,17.81,8.89,22.28A7.18,7.18,0,0,1,8.41,21L11.46,18l1-1.12Z"/>
    <path class="d" d="M33.09,37.55c-1,1-4-.41-7.63-3.2a56.77,56.77,0,0,1-5.67-5,55.18,55.18,0,0,1-5.33-6.12c-2.52-3.39-3.73-6.15-2.93-7.13a.28.28,0,0,1,.06-.07.32.32,0,0,1,.11-.09l.11-.06h0a1,1,0,0,1,.44-.13h.37l.21,0a2.81,2.81,0,0,1,.45.09l.44.13.05,0a6.83,6.83,0,0,1,1.12.47h0c2.53,1.24,6.78,3.2,10.33,6.71l.34.32a37.87,37.87,0,0,1,7,10.7C33.43,35.82,33.62,37,33.09,37.55Z"/>
    <path class="d" d="M45.95,13,28.39,30.56c-.77.77-.83.82-.91.85l-.13.06-.16,0c-1.18.21-3.44-1.32-5.47-3.27l-.42-.41c-2.46-2.45-4.43-5.4-2.73-7.1L36.12,3.17Z"/>
    <path class="e" d="M45.95,13,28.39,30.56c.74,2.12.18-4.38-2.78-7l7.58-7.58s2.37-2.37-2.55-7.28l4.77-4.77Z"/>
    <path class="e" d="M33.09,37.55,30,40.6a.94.94,0,0,1-.43.24l-7.27-9.08c1.7-1.7,4.37-4.29,3.28-8.25l3.68,1c2.44,2.44,3.36,9.68,3.36,9.68C33.43,35.82,33.62,37,33.09,37.55Z"/>
    <path class="d" d="M25.61,23.51l-.34-.32C21.73,19.69,10,17.6,11.57,16s10.69,1.47,13,3.81Z"/>
    <path class="e" d="M25.61,23.51l.32.34c3.51,3.55,5.59,15.27,7.16,13.7s-1.47-10.69-3.81-13Z"/>
    <polygon class="f" points="32.95 9.87 22.52 20.29 21.59 18.87 31.77 8.69 32.95 9.87"/>
    <path class="d" d="M31.68,1,28.27,4.43c-.23-.75-.22-1.33.09-1.63L30.91.25Z"/>
    <path class="e" d="M48.86,18.2l-2.55,2.55c-1.18,1.18-6.15-1.88-11.11-6.84A36.93,36.93,0,0,1,29,6.06a8.32,8.32,0,0,1-.71-1.63L31.68,1Z"/>
    <path class="f" d="M32.86,2.2,29,6.06a8.32,8.32,0,0,1-.71-1.63L31.68,1Z"/>
    <ellipse class="d" cx="39.89" cy="9.23" rx="3.02" ry="12.69" transform="translate(5.16 30.91) rotate(-45)"/>
  </g>
</svg>
