<svg xmlns="http://www.w3.org/2000/svg" xmlns:xlink="http://www.w3.org/1999/xlink" width="122" height="122" viewBox="0 0 122 122">
  <defs>
    <style>
      .a {
        fill: #40a3d6;
      }

      .b {
        fill: #81cee9;
      }

      .c {
        fill: #cbebf6;
      }

      .d {
        fill: #ff5722;
      }

      .e {
        fill: #d84315;
      }

      .f {
        fill: #ff8b22;
      }
    </style>
  </defs>
  <title>Asset 8</title>
  <g>
    <image width="122" height="122" xlink:href="Asset 81.png"/>
    <g>
      <polygon class="a" points="37.25 85.39 75.01 47.63 77.6 50.23 47.63 78.84 37.25 85.39"/>
      <polygon class="b" points="75.01 47.63 37.25 85.39 43.79 75 72.41 45.04 75.01 47.63"/>
      <polygon class="c" points="74.17 46.79 42.12 78.83 44.43 75.65 73.25 45.88 74.17 46.79"/>
      <path class="d" d="M48.71,54.26l-3.05,3.05c-.28-.91-.26-1.59.11-2l3.05-3.05.84.84Z"/>
      <path class="e" d="M70.34,73.81l-3.05,3.05a.89.89,0,0,1-.43.24c-1.94.58-7.42-3-12.89-8.44-3.75-3.75-6.59-7.51-7.83-10.13l4.46-4.46Z"/>
      <path class="f" d="M50.6,54.08l-4.46,4.46a7.18,7.18,0,0,1-.48-1.23l3.05-3.05,1-1.12Z"/>
      <path class="d" d="M70.34,73.81c-1,1-4-.41-7.63-3.2a56.77,56.77,0,0,1-5.67-5,55.18,55.18,0,0,1-5.33-6.12c-2.52-3.39-3.73-6.15-2.93-7.13a.28.28,0,0,1,.06-.07.32.32,0,0,1,.11-.09l.11-.06h0a1,1,0,0,1,.44-.13h.37l.21,0a2.81,2.81,0,0,1,.45.09l.44.13.05,0a6.83,6.83,0,0,1,1.12.47h0C54.72,54,59,56,62.52,59.46l.34.32a37.87,37.87,0,0,1,7,10.7C70.68,72.08,70.87,73.27,70.34,73.81Z"/>
      <path class="d" d="M83.19,49.26,65.63,66.82c-.77.77-.83.82-.91.85l-.13.06-.16,0C63.26,68,61,66.45,59,64.5l-.42-.41c-2.46-2.45-4.43-5.4-2.73-7.1L73.37,39.44Z"/>
      <path class="e" d="M83.19,49.26,65.63,66.82c.74,2.12.18-4.38-2.78-7l7.58-7.58s2.37-2.37-2.55-7.28l4.77-4.77Z"/>
      <path class="e" d="M70.34,73.81l-3.06,3.06a.94.94,0,0,1-.43.24L59.58,68c1.7-1.7,4.37-4.29,3.28-8.25l3.68,1c2.44,2.44,3.36,9.68,3.36,9.68C70.68,72.08,70.87,73.27,70.34,73.81Z"/>
      <path class="d" d="M62.86,59.78l-.34-.32C59,56,47.25,53.86,48.82,52.3s10.69,1.47,13,3.81Z"/>
      <path class="e" d="M62.86,59.78l.32.34c3.51,3.55,5.59,15.27,7.16,13.7s-1.47-10.69-3.81-13Z"/>
      <polygon class="f" points="70.19 46.13 59.77 56.55 58.84 55.13 69.02 44.95 70.19 46.13"/>
      <path class="d" d="M68.93,37.29,65.52,40.7c-.23-.75-.22-1.33.09-1.63l2.55-2.55Z"/>
      <path class="e" d="M86.11,54.47,83.56,57c-1.18,1.18-6.15-1.88-11.11-6.84a36.93,36.93,0,0,1-6.22-7.85,8.32,8.32,0,0,1-.71-1.63l3.41-3.41Z"/>
      <path class="f" d="M70.1,38.46l-3.87,3.87a8.32,8.32,0,0,1-.71-1.63l3.41-3.41Z"/>
      <ellipse class="d" cx="77.14" cy="45.49" rx="3.02" ry="12.69" transform="translate(-9.57 67.87) rotate(-45)"/>
    </g>
  </g>
</svg>
