<svg xmlns="http://www.w3.org/2000/svg" width="19.41" height="24.6" viewBox="0 0 19.41 24.6">
  <defs>
    <style>
      .a {
        fill: #b0bec5;
      }

      .b {
        fill: none;
      }
    </style>
  </defs>
  <title>Asset 5</title>
  <g>
    <path class="a" d="M5.64,14.66a.26.26,0,0,0,.19.29l.1-.49A.26.26,0,0,0,5.64,14.66Zm-1.4-.19a4.84,4.84,0,0,0-1.59.58.24.24,0,0,0-.08.33.23.23,0,0,0,.21.13.19.19,0,0,0,.12,0A4.46,4.46,0,0,1,4.33,15a.23.23,0,0,0,.19-.28A.24.24,0,0,0,4.24,14.47Zm5,2.17-.41.25a4.48,4.48,0,0,1,.42.85.25.25,0,0,0,.23.16h.08a.25.25,0,0,0,.15-.32A4.51,4.51,0,0,0,9.19,16.64Zm-7.48-.53a.23.23,0,0,0-.34,0A5,5,0,0,0,.52,17.6a.24.24,0,0,0,.15.31l.08,0A.24.24,0,0,0,1,17.77a4.58,4.58,0,0,1,.76-1.32A.24.24,0,0,0,1.71,16.11Zm8,2.89a.25.25,0,0,0-.24.25,4.46,4.46,0,0,1-.26,1.5.23.23,0,0,0,.14.31l.09,0a.25.25,0,0,0,.23-.16A5,5,0,0,0,10,19.25h0A.24.24,0,0,0,9.71,19Zm-9,.26a.25.25,0,0,0-.49,0,4.91,4.91,0,0,0,.29,1.66.26.26,0,0,0,.23.17l.08,0A.24.24,0,0,0,1,20.76,4.46,4.46,0,0,1,.73,19.26ZM8.79,22a.25.25,0,0,0-.34,0,4.43,4.43,0,0,1-1.17,1,.26.26,0,0,0-.09.33.25.25,0,0,0,.22.12l.12,0a4.79,4.79,0,0,0,1.29-1.08A.25.25,0,0,0,8.79,22ZM2.92,23a4.21,4.21,0,0,1-1.17-1,.24.24,0,1,0-.37.31,4.83,4.83,0,0,0,1.29,1.09.27.27,0,0,0,.12,0A.25.25,0,0,0,3,23.38.27.27,0,0,0,2.92,23Zm2.94.52a4.31,4.31,0,0,1-1.52,0,.25.25,0,0,0-.28.2.24.24,0,0,0,.2.28,4.69,4.69,0,0,0,.84.07A4.69,4.69,0,0,0,5.94,24a.23.23,0,0,0,.2-.28A.24.24,0,0,0,5.86,23.56Z"/>
    <path class="a" d="M9.74,16.73a.41.41,0,0,1-.24-.07L5.84,14.06a.41.41,0,0,1-.1-.57l6.37-9a.41.41,0,0,1,.57-.1L16.35,7a.41.41,0,0,1,.1.57l-6.37,9A.41.41,0,0,1,9.74,16.73Zm-3.09-3.1,3,2.12,5.9-8.34-3-2.12Z"/>
    <path class="a" d="M16.11,7.72a.41.41,0,0,1-.24-.07L12.21,5.05a.41.41,0,0,1-.1-.57l2.82-4A.41.41,0,0,1,15.5.4L19.17,3a.41.41,0,0,1,.1.57l-2.82,4a.41.41,0,0,1-.26.17ZM13,4.62l3,2.12,2.35-3.32-3-2.12Z"/>
    <path class="a" d="M5,19.54A.41.41,0,0,1,4.6,19l1.07-5.4a.41.41,0,0,1,.64-.25L10,16a.41.41,0,0,1,0,.68L5.21,19.48A.41.41,0,0,1,5,19.54Zm1.35-5.11-.77,3.89,3.41-2Z"/>
    <rect class="b" width="19.41" height="24.6"/>
  </g>
</svg>
