<svg xmlns="http://www.w3.org/2000/svg" width="68.21" height="69.84" viewBox="0 0 68.21 69.84">
  <defs>
    <style>
      .a {
        fill: #fff8e1;
      }

      .b {
        fill: #ffebb1;
      }

      .c {
        fill: #ffe080;
      }

      .d {
        fill: #424243;
      }

      .e {
        fill: #bdbcbc;
      }

      .f {
        fill: #f7bace;
      }

      .g {
        fill: #e0e0e0;
      }

      .h {
        fill: #f9ccd2;
      }

      .i {
        fill: #eee;
      }

      .j {
        fill: #fcd736;
      }

      .k {
        fill: #fbb216;
      }

      .l {
        fill: #f9a528;
      }

      .m {
        fill: #fff;
      }
    </style>
  </defs>
  <title>Asset 1</title>
  <g>
    <g>
      <path class="a" d="M33,55.77,17.37,59c0-.79-6-8.46-8.35-8.35l3.26-15.61c6.58-4.1,12.95-7.35,15.36,5.34,4.34.82,6.82,2.1,8,3.71a5.1,5.1,0,0,1,.82,4.34C36,50.71,34.58,53.22,33,55.77Z"/>
      <polyline class="b" points="6.85 61.2 19.35 41.8 30.44 41.07 33.15 55.6"/>
      <polygon class="c" points="26.25 48.7 6.85 61.2 33.15 55.6 34.84 48.7 26.25 48.7"/>
      <path class="d" d="M17.37,59,6.88,61.22l0,0v0h0l0,0L9.05,50.7a6.13,6.13,0,0,1,1.31.42,11.19,11.19,0,0,1,2,1,11.67,11.67,0,0,1,2,1.56,11.24,11.24,0,0,1,1.42,1.76A10.78,10.78,0,0,1,17.37,59Z"/>
      <path class="e" d="M6.85,61.2l3.52-10.07a11.19,11.19,0,0,1,2,1Z"/>
      <rect class="f" x="46.15" y="16.06" width="5.96" height="19.51" transform="translate(-3.87 42.31) rotate(-45)"/>
      <rect class="g" x="41.94" y="20.27" width="5.96" height="19.52" transform="translate(-8.08 40.56) rotate(-45)"/>
      <rect class="h" x="35.8" y="10.59" width="5.96" height="9.76" transform="translate(0.42 31.95) rotate(-45)"/>
      <rect class="i" x="31.59" y="14.8" width="5.96" height="9.76" transform="translate(-3.79 30.21) rotate(-45)"/>
      <g>
        <path class="j" d="M29,18.34,12.45,34.9c4,.22,6.57,2.88,6.9,6.9L35.91,25.24Z"/>
        <path class="k" d="M35.91,25.24,19.35,41.8c4,.22,6.57,2.88,6.9,6.9L42.81,32.14Z"/>
        <path class="l" d="M42.81,32.14,26.25,48.7c4,.22,6.57,2.88,6.9,6.9L49.71,39Z"/>
      </g>
    </g>
    <path class="m" d="M37.59,4.24,64,30.62l-7.06,7-4.2,4.21L35.12,59.44,3,66.15V60.78l5.77-27.7L26.33,15.51l4.22-4.21,7-7m0-4.24L35.46,2.13l-7,7-4.22,4.21L6.65,31,6,31.59l-.18.88L.06,60.17l-.06.3v9.36l3.61-.75,32.12-6.71.88-.18.63-.63L54.82,44,59,39.78l7.05-7,2.13-2.12L66.08,28.5,39.71,2.12,37.58,0Z"/>
  </g>
</svg>
