<svg xmlns="http://www.w3.org/2000/svg" width="19.41" height="24.6" viewBox="0 0 19.41 24.6">
  <defs>
    <style>
      .a {
        fill: #ff3636;
      }

      .b {
        fill: none;
      }
    </style>
  </defs>
  <title>Asset 11</title>
  <g>
    <path class="a" d="M3.66,12.35a6,6,0,1,0,6-6,6.05,6.05,0,0,0-6,6"/>
    <g>
      <g>
        <path d="M9.71,18.78a6.42,6.42,0,1,1,6.42-6.42A6.43,6.43,0,0,1,9.71,18.78Zm0-12a5.62,5.62,0,1,0,5.62,5.62A5.63,5.63,0,0,0,9.71,6.73Z"/>
        <path d="M1.83,20.58a.4.4,0,0,1-.28-.68L17.3,4.14a.4.4,0,0,1,.56.56L2.11,20.46A.4.4,0,0,1,1.83,20.58Z"/>
      </g>
      <rect class="b" width="19.41" height="24.6"/>
    </g>
  </g>
</svg>
