<svg xmlns="http://www.w3.org/2000/svg" width="55.84" height="69.36" viewBox="0 0 55.84 69.36">
  <defs>
    <style>
      .a {
        fill: #bdcfe6;
      }

      .b {
        fill: #a1b3d6;
      }

      .c {
        fill: #8fa1c4;
      }

      .d, .e {
        fill: #d6e6e6;
      }

      .d {
        opacity: 0.53;
      }

      .f {
        fill: #fff;
      }
    </style>
  </defs>
  <title>Asset 4</title>
  <g>
    <g>
      <path class="a" d="M46.24,57c0,6.73-36.93,6.73-36.93,0V17.69c0,4.45,36.93,4.45,36.93,0Z"/>
      <path class="b" d="M46.24,17.69V57a1.51,1.51,0,0,1,0,.29,1.22,1.22,0,0,1-.06.25l-.05.15s0,0,0,0a2.37,2.37,0,0,1-.28.44,6.78,6.78,0,0,1-1.86,1.43l-.13.07C41,61.06,36,61.84,31.45,62V21c6.89-.2,13.91-1.19,14.71-3A.77.77,0,0,0,46.24,17.69Z"/>
      <g>
        <path class="b" d="M29.41,28V56.05a1.59,1.59,0,0,1-1.58,1.6h-.11a1.59,1.59,0,0,1-1.58-1.6V28a1.61,1.61,0,0,1,1.62-1.6h0A1.61,1.61,0,0,1,29.41,28Z"/>
        <path class="b" d="M22.45,27.67v28a1.6,1.6,0,0,1-1.76,1.6h-.07a1.6,1.6,0,0,1-1.44-1.6v-28a1.6,1.6,0,0,1,1.76-1.59H21A1.6,1.6,0,0,1,22.45,27.67Z"/>
        <path class="c" d="M36.36,27.66v28a1.6,1.6,0,0,1-1.44,1.6h-.07a1.6,1.6,0,0,1-1.76-1.6v-28a1.6,1.6,0,0,1,1.45-1.59h.07A1.6,1.6,0,0,1,36.36,27.66Z"/>
        <path class="c" d="M43.32,26.45V54.37a1.59,1.59,0,0,1-1.08,1.51l-.13,0A1.6,1.6,0,0,1,40,54.4V26.47a1.61,1.61,0,0,1,1.19-1.54l.07,0A1.59,1.59,0,0,1,43.32,26.45Z"/>
        <path class="b" d="M15.49,26.47V54.39a1.6,1.6,0,0,1-2.07,1.53l-.13,0a1.59,1.59,0,0,1-1.07-1.51V26.45a1.59,1.59,0,0,1,2-1.54l.07,0A1.61,1.61,0,0,1,15.49,26.47Z"/>
      </g>
      <path class="d" d="M13.33,21.67c-1.39-.45-2.22-1-2.22-1.64V57.65c0,1,2.22,1.46,2.22,1.46Z"/>
      <path class="b" d="M6.84,18.12c0,6.81,41.84,6.81,41.84,0V12.66H6.84Z"/>
      <path class="c" d="M32.67,12.66a13.68,13.68,0,0,1,1.3,4.9L33.89,23c8.06-.54,14.8-2.17,14.8-4.91V12.66Z"/>
      <path class="a" d="M48.69,12.66c0,6.81-41.84,6.81-41.84,0C6.84,8.12,48.69,8.12,48.69,12.66Z"/>
      <path class="e" d="M47.18,13.05c-1.88-3.32-23.37-4.24-33.65-2.28C26.47,9.24,43.44,11,47.18,13.05Z"/>
      <polygon class="c" points="33.13 8.14 34.12 7.18 33.99 14.09 33.01 14.5 33.13 8.14"/>
      <polygon class="c" points="22.66 8.02 23.68 7.04 23.64 14.08 22.63 14.5 22.66 8.02"/>
      <polygon class="a" points="33.13 8.14 21.58 8.01 22.98 7.03 34.12 7.18 33.13 8.14"/>
      <polygon class="b" points="33.13 8.14 33.01 14.5 31.97 14.5 32.05 9.81 22.65 9.73 22.63 14.5 21.57 14.5 21.58 8.01 33.13 8.14"/>
    </g>
    <path class="f" d="M21.89,3l16.46.22,0,2.41c10.55.82,14.54,2.78,14.54,7v5.46a5.52,5.52,0,0,1-.23,1.55l-.05.17a6.19,6.19,0,0,1-.64,1.36l-.12.19-.08.1a6.38,6.38,0,0,1-.65.78l-.07.07c-.21.21-.41.39-.62.55V57a5.49,5.49,0,0,1-.08,1,4,4,0,0,1-.08.39v.31l-.41.83a4.42,4.42,0,0,1-.28.49,8.12,8.12,0,0,1-3.41,3.05,4.27,4.27,0,0,1-.55.29c-.29.13-.63.27-1,.41l-.21.1-.23.06-1,.33-.16,0A48.75,48.75,0,0,1,31.79,66l-4.18.19v-.13C9.31,66,5.46,61.15,5.46,57V22.91A6,6,0,0,1,3,18.12V12.66C3,8.33,7.16,6.37,18.24,5.59L21.89,3M21,0l-.79.56-3,2.1C8.72,3.31,0,4.81,0,12.66v5.46a8.86,8.86,0,0,0,2.46,6.09V57c0,2.54,1,6.12,5.8,8.68,3.68,2,9.05,3.06,16.35,3.31v.32l3.13-.14L31.92,69a51.92,51.92,0,0,0,12-1.84l.2-.06,1-.31.1,0,.31-.08.29-.14.08,0c.39-.15.73-.3,1-.43a7.29,7.29,0,0,0,.79-.42,11,11,0,0,0,4.46-4.07,7.43,7.43,0,0,0,.42-.75l.41-.83.31-.62v-.68l0-.24A8.51,8.51,0,0,0,53.4,57V24.19a9,9,0,0,0,.78-1l0-.06,0-.07,0-.07.13-.19,0,0,0,0a9.18,9.18,0,0,0,.94-2l0-.06,0-.06.05-.17a8.52,8.52,0,0,0,.35-2.4V12.66c0-7.44-8.31-9.14-14.48-9.77l0-2.63-3,0L21.93,0Z"/>
  </g>
</svg>
