<svg xmlns="http://www.w3.org/2000/svg" width="19.75" height="24.6" viewBox="0 0 19.75 24.6">
  <defs>
    <style>
      .a {
        fill: none;
      }

      .b {
        fill: #b0bec5;
      }

      .c {
        fill: #fff;
      }
    </style>
  </defs>
  <title>Asset 4</title>
  <g>
    <rect class="a" x="0.17" width="19.41" height="24.6"/>
    <g>
      <path class="b" d="M5,24.32a5,5,0,1,1,5-5A5,5,0,0,1,5,24.32Zm0-9.23A4.21,4.21,0,1,0,9.23,19.3,4.21,4.21,0,0,0,5,15.09Z"/>
      <path class="b" d="M14.73,10.32a5,5,0,1,1,5-5A5,5,0,0,1,14.73,10.32Zm0-9.23A4.21,4.21,0,1,0,18.94,5.3,4.21,4.21,0,0,0,14.73,1.09Z"/>
      <line class="c" x1="14.73" y1="5.3" x2="5.02" y2="19.3"/>
      <path class="b" d="M5,19.71a.41.41,0,0,1-.33-.64l9.71-14a.41.41,0,1,1,.67.46l-9.71,14A.41.41,0,0,1,5,19.71Z"/>
      <circle class="a" cx="14.73" cy="5.3" r="4.21"/>
    </g>
  </g>
</svg>
