<svg xmlns="http://www.w3.org/2000/svg" width="63.34" height="67" viewBox="0 0 63.34 67">
  <defs>
    <style>
      .a {
        fill: #26d3c7;
      }

      .b {
        fill: #248c9f;
      }

      .c {
        fill: #56f4e8;
      }

      .d {
        fill: #01579B;
      }
    </style>
  </defs>
  <title>Asset 2</title>
  <g>
    <g>
      <circle class="a" cx="14.45" cy="47.16" r="7.6" transform="translate(-34.85 48.93) rotate(-75.02)"/>
      <path class="b" d="M19.92,52.43a7.6,7.6,0,1,1-8.35-12.31,7.6,7.6,0,0,0,8.35,12.31Z"/>
      <path class="c" d="M15.37,41.21A8,8,0,0,1,20.6,46l.53-.23A7.78,7.78,0,0,0,16,40.83a5.64,5.64,0,0,0-3.51.28l.23.06h0A5.83,5.83,0,0,1,15.37,41.21Z"/>
      <path class="a" d="M15.2,41.42,26,17.38a2,2,0,0,1,2.66-.94l0,0a2,2,0,0,1,.9,2.55L18.76,43a2,2,0,0,1-3,.75h0A2,2,0,0,1,15.2,41.42Z"/>
      <path class="b" d="M15.8,43.78h0a2,2,0,0,1-.6-2.36L26,17.38a2,2,0,0,1,2.66-.94l0,0Z"/>
      <path class="a" d="M19.25,46.09l26.28,2.18a2,2,0,0,1,1.78,2.2v.05a2,2,0,0,1-2.1,1.7L18.93,50a2,2,0,0,1-1.7-2.54h0A2,2,0,0,1,19.25,46.09Z"/>
      <circle class="a" cx="28.02" cy="16.64" r="9.13" transform="translate(3.72 38.36) rotate(-72.5)"/>
      <path class="b" d="M34.31,23.25A9.13,9.13,0,1,1,25,8a9.12,9.12,0,0,0,9.36,15.21Z"/>
      <path class="a" d="M45.88,43l-13-22.92a2,2,0,0,0-2.74-.69l0,0a2,2,0,0,0-.65,2.62L42.49,45a2,2,0,0,0,3,.47h0A2,2,0,0,0,45.88,43Z"/>
      <path class="b" d="M47,51.28a1.92,1.92,0,0,1-1.83.94L18.93,50a2,2,0,0,1-1.78-1.7Z"/>
      <path class="b" d="M44.72,45.89a1.94,1.94,0,0,1-2.23-.9L29.4,22.09a2,2,0,0,1,.26-2.29Z"/>
      <circle class="a" cx="46.28" cy="50.1" r="9.9" transform="translate(-12.26 85.08) rotate(-78.13)"/>
      <path class="b" d="M54.84,55.08a9.9,9.9,0,1,1-14.36-13,9.9,9.9,0,0,0,14.36,13Z"/>
      <path class="c" d="M46.67,42a9.65,9.65,0,0,1,6.83,5.1l.61-.34a9.35,9.35,0,0,0-6.73-5.29,6.78,6.78,0,0,0-4.16.76l.29,0h0A7,7,0,0,1,46.67,42Z"/>
      <path class="c" d="M30.56,9.25a9.65,9.65,0,0,1,5,6.92l.69-.14A9.35,9.35,0,0,0,31.4,9a6.78,6.78,0,0,0-4.2-.53l.26.13h0A7,7,0,0,1,30.56,9.25Z"/>
    </g>
    <path class="d" d="M28.2,3.52A13.13,13.13,0,0,1,39.44,23.38l7.29,12.81a14,14,0,0,1,2.56.3,13.91,13.91,0,0,1,11,14.89l0,.22-1.77,5.46-.17.24c-.23.38-.49.77-.78,1.16l-.21.26a13.89,13.89,0,0,1-1,1.16l-.06.06A14.28,14.28,0,0,1,55,61.07l-.32.23c-.36.26-.7.49-1,.69l-.45.26a14.38,14.38,0,0,1-1.34.65l-.19.08a13.64,13.64,0,0,1-1.5.5l-.34.09c-.56.13-1,.22-1.47.28l-.4.05a13.29,13.29,0,0,1-1.46.08h-.32l-.47,0h-.09l-.72-.06-.74-.11-.12,0-.42-.07-.19,0-.79-.21-.46-.13-.72-.26L41.24,63l-.42-.17-.52-.25-.17-.08-.55-.28L39.23,62l-.08,0c-.23-.14-.48-.3-.72-.47l-.24-.18c-.27-.2-.56-.42-.83-.65l-.18-.16c-.24-.21-.52-.48-.79-.76l-.17-.19c-.24-.26-.47-.53-.7-.81l-.25-.33-.08-.11c-.15-.2-.3-.41-.45-.64l-.25-.42L34.4,57c-.1-.17-.21-.35-.3-.53s-.16-.32-.23-.48l-.09-.2c-.07-.16-.15-.33-.23-.51l0-.08-9.84-.83a11.56,11.56,0,0,1-1.73,1.75l-.25.19a11.52,11.52,0,0,1-1,.67l-.14.09a11.73,11.73,0,0,1-1.29.67l-.29.12c-.3.13-.65.25-1,.36l-.37.11a11.6,11.6,0,0,1-1.17.25l-.08,0a11.64,11.64,0,0,1-1.5.13H14.6c-.46,0-.81,0-1.17-.06l-.43,0A11.27,11.27,0,0,1,10.46,58,11.48,11.48,0,0,1,7.9,56.63,11.64,11.64,0,0,1,3.39,44.16a11.22,11.22,0,0,1,.41-1.25l.13-.31c.13-.29.26-.59.41-.87l.14-.25c.2-.36.36-.61.53-.85l.25-.35c.16-.22.35-.46.56-.7L6,39.39c.31-.33.56-.59.83-.83l.06-.06A11.59,11.59,0,0,1,9,37l.18-.1c.29-.15.58-.29.87-.42l1.7-.73.09.14a11.51,11.51,0,0,1,1.76-.29l4.67-10.37A13.2,13.2,0,0,1,15.65,12.7a13,13,0,0,1,.53-1.39l.16-.32c.17-.34.33-.66.51-1l.2-.33c.22-.35.41-.63.61-.89L18,8.41c.19-.24.42-.5.65-.75l.24-.26c.31-.31.59-.57.88-.81L20,6.41a12.76,12.76,0,0,1,1.13-.81l.22-.13a11.43,11.43,0,0,1,1-.56l.28-.13c.34-.16.65-.29,1-.41l.25-.1,1.66-.58.05.1a13.08,13.08,0,0,1,2.7-.28m6.11,39.8a14,14,0,0,1,1.52-2.2l-6.5-11.37-5,11.07a11.45,11.45,0,0,1,.94,1.75l9.05.75M26.94,0,24.46.86l-1.66.58-.39.15c-.36.14-.71.29-1.1.47L21,2.22c-.46.23-.92.49-1.24.69L19.54,3l0,0,0,0a15.66,15.66,0,0,0-1.4,1l-.3.26c-.35.3-.69.61-1,1l0,0,0,0-.24.26c-.31.33-.58.64-.82.94L15.26,7c-.24.32-.47.66-.74,1.08l-.25.41c-.21.35-.4.72-.62,1.16-.07.13-.13.26-.2.43a16,16,0,0,0-.66,1.72,16.26,16.26,0,0,0,2,13.83l-3.1,6.88-1.15.5-1.7.73c-.37.16-.73.33-1.09.52l-.18.09H7.54a14.68,14.68,0,0,0-2.65,1.87l0,0,0,0-.06.06c-.32.29-.64.61-1,1l0,0,0,0-.17.19c-.25.29-.5.6-.71.89l-.3.43c-.22.32-.42.65-.65,1.05l-.16.28v0c-.17.33-.34.69-.5,1.06-.07.15-.13.29-.18.43A14.13,14.13,0,0,0,.49,43.4,14.65,14.65,0,0,0,6.17,59.08,14.46,14.46,0,0,0,9.4,60.81a14.26,14.26,0,0,0,3.19.81l.53.06c.47,0,.92.07,1.45.08H15a14.65,14.65,0,0,0,1.87-.16H17c.47-.08,1-.18,1.43-.31l.47-.14c.42-.13.84-.28,1.22-.44l.43-.18a14.86,14.86,0,0,0,1.57-.82l.05,0,0,0,.12-.08c.4-.25.8-.53,1.19-.83l.26-.21,0,0,0,0q.55-.45,1.06-1l6.63.56.29.51.09.16c.09.16.21.36.31.52s.37.54.56.8l.05.07c.13.19.26.36.36.48.26.33.56.67.81.94l.16.18,0,0,0,0c.37.38.72.71,1,.92l.16.15,0,0,0,0c.38.33.75.61,1,.79l.21.16,0,0,0,0c.32.22.63.42.9.58l0,0,.46.28c.26.15.5.27.72.38l.14.07.66.32.57.23.14.06c.27.11.57.22.87.32l.61.18.89.23.17,0h.08l.63.11h.05l.87.13c.33,0,.63.06.9.07h0L46,67h.42a16.37,16.37,0,0,0,1.76-.1l.55-.07c.52-.07,1.06-.17,1.7-.33l.45-.12a16.64,16.64,0,0,0,1.82-.61l.23-.09a17.44,17.44,0,0,0,1.63-.79l.56-.33c.41-.25.82-.52,1.23-.82l.42-.31a17.35,17.35,0,0,0,1.56-1.37l0,0,0,0,0,0a17,17,0,0,0,1.21-1.38l.22-.28,0,0,0,0c.32-.43.63-.88.9-1.32l.12-.17.25-.36.14-.42,1.77-5.46.1-.32,0-.33,0-.22a16.91,16.91,0,0,0-13.36-18.1q-.67-.14-1.35-.23l-5.7-10A16.13,16.13,0,0,0,28.2.52l-1,0L26.94,0Zm1.13,39.79,1.56-3.45,2.15,3.76-3.71-.31Z"/>
  </g>
</svg>
