<svg xmlns="http://www.w3.org/2000/svg" width="64.16" height="64.17" viewBox="0 0 64.16 64.17">
  <defs>
    <style>
      .a {
        fill: #40a3d6;
      }

      .b {
        fill: #81cee9;
      }

      .c {
        fill: #cbebf6;
      }

      .d {
        fill: #ff5722;
      }

      .e {
        fill: #d84315;
      }

      .f {
        fill: #ff8b22;
      }

      .g {
        fill: #01579B;
      }
    </style>
  </defs>
  <title>Asset 3</title>
  <g>
    <g>
      <polygon class="a" points="7.89 56.12 45.65 18.36 48.24 20.96 18.28 49.58 7.89 56.12"/>
      <polygon class="b" points="45.65 18.36 7.89 56.12 14.44 45.74 43.06 15.77 45.65 18.36"/>
      <polygon class="c" points="44.81 17.53 12.77 49.57 15.07 46.38 43.89 16.61 44.81 17.53"/>
      <path class="d" d="M19.35,25,16.3,28c-.28-.91-.26-1.59.11-2L19.46,23l.84.84Z"/>
      <path class="e" d="M41,44.55,37.93,47.6a.89.89,0,0,1-.43.24c-1.94.58-7.42-3-12.89-8.44-3.75-3.75-6.59-7.51-7.83-10.13l4.46-4.46Z"/>
      <path class="f" d="M21.24,24.81l-4.46,4.46A7.18,7.18,0,0,1,16.3,28L19.35,25l1-1.12Z"/>
      <path class="d" d="M41,44.54c-1,1-4-.41-7.63-3.2a56.77,56.77,0,0,1-5.67-5,55.18,55.18,0,0,1-5.33-6.12c-2.52-3.39-3.73-6.15-2.93-7.13a.28.28,0,0,1,.06-.07.32.32,0,0,1,.11-.09l.11-.06h0a1,1,0,0,1,.44-.13h.37l.21,0a2.81,2.81,0,0,1,.45.09l.44.13.05,0a6.83,6.83,0,0,1,1.12.47h0c2.53,1.24,6.78,3.2,10.33,6.71l.34.32a37.87,37.87,0,0,1,7,10.7C41.32,42.81,41.52,44,41,44.54Z"/>
      <path class="d" d="M53.84,20,36.28,37.55c-.77.77-.83.82-.91.85l-.13.06-.16,0c-1.18.21-3.44-1.32-5.47-3.27l-.42-.41c-2.46-2.45-4.43-5.4-2.73-7.1L44,10.17Z"/>
      <path class="e" d="M53.84,20,36.28,37.55c.74,2.12.18-4.38-2.78-7l7.58-7.58s2.37-2.37-2.55-7.28l4.77-4.77Z"/>
      <path class="e" d="M41,44.54,37.92,47.6a.94.94,0,0,1-.43.24l-7.27-9.08c1.7-1.7,4.37-4.29,3.28-8.25l3.68,1c2.44,2.44,3.36,9.68,3.36,9.68C41.32,42.81,41.52,44,41,44.54Z"/>
      <path class="d" d="M33.5,30.51l-.34-.32C29.62,26.68,17.9,24.6,19.46,23s10.69,1.47,13,3.81Z"/>
      <path class="e" d="M33.5,30.51l.32.34c3.51,3.55,5.59,15.27,7.16,13.7s-1.47-10.69-3.81-13Z"/>
      <polygon class="f" points="40.84 16.86 30.41 27.29 29.48 25.86 39.66 15.69 40.84 16.86"/>
      <path class="d" d="M39.57,8l-3.41,3.41c-.23-.75-.22-1.33.09-1.63L38.8,7.25Z"/>
      <path class="e" d="M56.76,25.2l-2.55,2.55C53,28.93,48.06,25.87,43.1,20.91a36.93,36.93,0,0,1-6.22-7.85,8.32,8.32,0,0,1-.71-1.63L39.57,8Z"/>
      <path class="f" d="M40.75,9.19l-3.87,3.87a8.32,8.32,0,0,1-.71-1.63L39.57,8Z"/>
      <ellipse class="d" cx="47.78" cy="16.23" rx="3.02" ry="12.69" transform="translate(2.52 38.54) rotate(-45)"/>
    </g>
    <path class="g" d="M39.7,3c4.47,0,10.72,5.78,13.2,8.27s8.26,8.72,8.26,13.2A5,5,0,0,1,59.74,28l-2.55,2.55A5,5,0,0,1,53.63,32a9.2,9.2,0,0,1-4.57-1.42L44,35.65c1.26,3.48,2.24,7.74.9,10.41a4,4,0,0,1-.27.47,4.25,4.25,0,0,1-.66.85l-.37.37,0,0-2.67,2.67a4.76,4.76,0,0,1-1.68,1.08l-.22.1-.22.07a5.7,5.7,0,0,1-1.6.23c-2.53,0-5.93-1.7-10.11-5.05L20.9,52.74,8.83,60.36l-5-5,7.61-12.08,5.9-6.17a32.85,32.85,0,0,1-4-6.1,11.09,11.09,0,0,1-.73-1.92,5.54,5.54,0,0,1,1.16-5.82l3-3.06,1-1.15H18l.17-.17h1a7.79,7.79,0,0,1,2.09-.26,23.23,23.23,0,0,1,7.25,1.55l5.06-5.06L33.51,15a12.37,12.37,0,0,1-1-2.41c-.92-3,.33-4.83,1.15-5.62l2.5-2.5A5,5,0,0,1,39.7,3m0-3A8,8,0,0,0,34,2.3l-2.5,2.51a8.21,8.21,0,0,0-1.9,8.61q.15.51.36,1l-2.25,2.25a23,23,0,0,0-6.44-1.11,11,11,0,0,0-2.47.26H16.92l-.17.17H16.5l-.89,1-1,1.1-3,3A8.5,8.5,0,0,0,9.7,29.88a14,14,0,0,0,.91,2.39,30.4,30.4,0,0,0,2.78,4.59L9.25,41.19,9,41.41l-.16.26L1.28,53.75,0,55.77l1.69,1.69,5,5,1.7,1.69,2-1.28L22.5,55.28l.25-.16.22-.21,4.32-4.13c3.86,2.77,7.11,4.12,9.89,4.12a8.73,8.73,0,0,0,2.45-.35l.22-.06.19-.06.18-.08.16-.07A7.74,7.74,0,0,0,43,52.55l2.44-2.44h0l.25-.25.37-.37a7.26,7.26,0,0,0,1.08-1.38,6.9,6.9,0,0,0,.42-.75c1.31-2.63,1.25-6.3-.16-10.92l2.26-2.26a10.31,10.31,0,0,0,3.94.81,7.91,7.91,0,0,0,5.7-2.32l2.53-2.53a8,8,0,0,0,2.3-5.69c0-5.13-5-11.16-9.14-15.32S44.82,0,39.7,0Z"/>
  </g>
</svg>
