<svg xmlns="http://www.w3.org/2000/svg" width="39.99" height="48.75" viewBox="0 0 39.99 48.75">
  <defs>
    <style>
      .a {
        fill: #ffc107;
      }

      .b {
        fill: #ffa000;
      }

      .c {
        fill: #ffecb3;
      }
    </style>
  </defs>
  <title>Asset 5</title>
  <g>
    <path class="a" d="M30.12,10.24v3.49A10.15,10.15,0,0,1,20.25,24H20a10.15,10.15,0,0,1-9.87-10.24V10.24A10.15,10.15,0,0,1,20,0h.25A10.15,10.15,0,0,1,30.12,10.24Z"/>
    <path class="b" d="M30.12,10.24v3.49A10.15,10.15,0,0,1,20.25,24H20a9.87,9.87,0,0,1-8-4.34,9.69,9.69,0,0,0,5.38,1.71h.26a10.15,10.15,0,0,0,9.86-10.24V7.6a10.41,10.41,0,0,0-1.84-5.9A10.38,10.38,0,0,1,30.12,10.24Z"/>
    <path class="a" d="M34.94,48.75a5,5,0,0,0,5-5h0A17.06,17.06,0,0,0,22.93,26.65H17.06A17.06,17.06,0,0,0,0,43.7H0a5,5,0,0,0,5,5Z"/>
    <path class="b" d="M35,31.65a17.09,17.09,0,0,0-7.84-4.47l-.87-.2-.58-.1-.25,0c-.25,0-.49-.07-.74-.09l-.14,0-.68-.05q-.48,0-1,0H17.06c-2.08,0-3.47.35-3.55.81,0,.22.42.43,1.2.61a16.4,16.4,0,0,1,3.08-.31c10,0,17.34,8.14,17.77,17.77a14.94,14.94,0,0,1-.22,3.19,5,5,0,0,0,4.64-5A17,17,0,0,0,35,31.65Z"/>
    <path class="c" d="M13.12,18.82C8.88,12.91,12.4.5,20.91,1.57,14.37,3.21,11.32,12.19,13.12,18.82Z"/>
    <path class="c" d="M9.41,30.13A24.86,24.86,0,0,0,2.86,45.37,4.51,4.51,0,0,1,2.21,43,15.18,15.18,0,0,1,9.41,30.13Z"/>
  </g>
</svg>
