<svg xmlns="http://www.w3.org/2000/svg" xmlns:xlink="http://www.w3.org/1999/xlink" width="268.38" height="196.68" viewBox="0 0 268.38 196.68">
  <defs>
    <style>
      .a {
        fill: #85d5f7;
      }

      .b {
        fill: #fff;
      }

      .c {
        fill: url(#a);
      }

      .d {
        fill: url(#b);
      }

      .e {
        fill: url(#c);
      }

      .f {
        fill: url(#d);
      }

      .g {
        fill: url(#e);
      }

      .h {
        fill: url(#f);
      }

      .i {
        fill: url(#g);
      }

      .j {
        fill: url(#h);
      }

      .k {
        fill: url(#i);
      }

      .l {
        fill: url(#j);
      }

      .m {
        fill: url(#k);
      }

      .n {
        fill: url(#l);
      }

      .o {
        fill: url(#m);
      }

      .p {
        fill: url(#n);
      }

      .q {
        fill: url(#o);
      }

      .r {
        fill: url(#p);
      }

      .s {
        fill: url(#q);
      }

      .t {
        fill: url(#r);
      }

      .u {
        fill: url(#s);
      }

      .v {
        fill: url(#t);
      }

      .w {
        fill: url(#u);
      }

      .x {
        fill: url(#v);
      }

      .y {
        fill: url(#w);
      }

      .z {
        fill: none;
        stroke-miterlimit: 10;
        stroke: url(#x);
      }

      .aa {
        fill: url(#y);
      }

      .ab {
        fill: url(#z);
      }

      .ac {
        fill: url(#aa);
      }

      .ad {
        fill: url(#ab);
      }

      .ae {
        fill: url(#ac);
      }

      .af {
        fill: url(#ad);
      }

      .ag {
        fill: url(#ae);
      }

      .ah {
        fill: #2d3079;
      }

      .ai {
        isolation: isolate;
      }

      .aj {
        clip-path: url(#af);
      }

      .ak {
        clip-path: url(#ag);
      }
    </style>
    <radialGradient id="a" cx="160.28" cy="54.34" r="123.07" gradientUnits="userSpaceOnUse">
      <stop offset="0" stop-color="#9cd9e6"/>
      <stop offset="0.15" stop-color="#9ad6e4"/>
      <stop offset="0.28" stop-color="#93cbdd"/>
      <stop offset="0.4" stop-color="#87bad2"/>
      <stop offset="0.51" stop-color="#76a1c2"/>
      <stop offset="0.62" stop-color="#6082ae"/>
      <stop offset="0.72" stop-color="#465c96"/>
      <stop offset="0.82" stop-color="#2a327b"/>
    </radialGradient>
    <radialGradient id="b" cx="199.64" cy="189.7" r="143.86" gradientTransform="translate(12.64 -159.47) scale(0.91 1.3)" gradientUnits="userSpaceOnUse">
      <stop offset="0.34" stop-color="#fdb816"/>
      <stop offset="0.43" stop-color="#f9b518"/>
      <stop offset="0.52" stop-color="#edae1e"/>
      <stop offset="0.61" stop-color="#d8a128"/>
      <stop offset="0.7" stop-color="#bc8e35"/>
      <stop offset="0.8" stop-color="#977747"/>
      <stop offset="0.89" stop-color="#695a5d"/>
      <stop offset="0.98" stop-color="#353976"/>
      <stop offset="1" stop-color="#2a327b"/>
    </radialGradient>
    <linearGradient id="c" x1="188.56" y1="64.17" x2="215.97" y2="130.36" gradientUnits="userSpaceOnUse">
      <stop offset="0.34" stop-color="#5ecae7"/>
      <stop offset="0.45" stop-color="#5dc6e4"/>
      <stop offset="0.55" stop-color="#58badb"/>
      <stop offset="0.66" stop-color="#51a5cd"/>
      <stop offset="0.77" stop-color="#4889b9"/>
      <stop offset="0.88" stop-color="#3b649e"/>
      <stop offset="0.99" stop-color="#2c377f"/>
      <stop offset="1" stop-color="#2a327b"/>
    </linearGradient>
    <radialGradient id="d" cx="36.13" cy="197" r="10.8" xlink:href="#b"/>
    <radialGradient id="e" cx="175.01" cy="172.23" r="213.19" gradientTransform="translate(12.64 -159.47) scale(0.91 1.3)" gradientUnits="userSpaceOnUse">
      <stop offset="0" stop-color="#fff"/>
      <stop offset="0.18" stop-color="#fbfdfe"/>
      <stop offset="0.35" stop-color="#eff8fb"/>
      <stop offset="0.54" stop-color="#daf0f5"/>
      <stop offset="0.72" stop-color="#bee5ed"/>
      <stop offset="0.89" stop-color="#9bd7e4"/>
      <stop offset="0.91" stop-color="#98d2e1"/>
      <stop offset="0.92" stop-color="#8ec4d8"/>
      <stop offset="0.94" stop-color="#7faeca"/>
      <stop offset="0.96" stop-color="#698db5"/>
      <stop offset="0.98" stop-color="#4c649b"/>
      <stop offset="1" stop-color="#2a337b"/>
      <stop offset="1" stop-color="#2a327b"/>
    </radialGradient>
    <linearGradient id="f" x1="22.53" y1="79.52" x2="26.68" y2="85" xlink:href="#c"/>
    <linearGradient id="g" x1="18" y1="116.91" x2="35.08" y2="88.15" xlink:href="#c"/>
    <linearGradient id="h" x1="10.12" y1="96.75" x2="29.76" y2="63.87" xlink:href="#c"/>
    <linearGradient id="i" x1="-1.45" y1="114.79" x2="26.1" y2="68.47" xlink:href="#c"/>
    <linearGradient id="j" x1="55.54" y1="47.96" x2="47.74" y2="75.7" xlink:href="#c"/>
    <linearGradient id="k" x1="60.1" y1="81.62" x2="49.46" y2="119.46" xlink:href="#c"/>
    <linearGradient id="l" x1="65.76" y1="165.87" x2="110.87" y2="138.86" xlink:href="#c"/>
    <linearGradient id="m" x1="112.18" y1="39.08" x2="88.78" y2="122.28" xlink:href="#c"/>
    <linearGradient id="n" x1="44.53" y1="134.76" x2="93.01" y2="112.84" xlink:href="#c"/>
    <linearGradient id="o" x1="51.67" y1="131.69" x2="62.55" y2="121.69" xlink:href="#c"/>
    <radialGradient id="p" cx="282.65" cy="164.88" r="287" xlink:href="#e"/>
    <linearGradient id="q" x1="39.48" y1="86.37" x2="72.57" y2="63.64" xlink:href="#c"/>
    <radialGradient id="r" cx="213.46" cy="152.19" r="67.03" gradientTransform="translate(12.64 -159.47) scale(0.91 1.3)" xlink:href="#c"/>
    <linearGradient id="s" x1="241.52" y1="115.89" x2="147.34" y2="140.02" gradientTransform="translate(-18.5 4.68) rotate(-1.83)" xlink:href="#c"/>
    <linearGradient id="t" x1="207.7" y1="6.18" x2="127.59" y2="116.26" gradientTransform="translate(-23.42 6.02) rotate(-2.32)" xlink:href="#c"/>
    <radialGradient id="u" cx="322.08" cy="159.72" r="234.27" gradientTransform="matrix(0.91, -0.05, 0.04, 1.3, -8.59, -151.66)" xlink:href="#e"/>
    <radialGradient id="v" cx="336.37" cy="162.89" r="208.75" xlink:href="#e"/>
    <linearGradient id="w" x1="226.18" y1="26.37" x2="223.24" y2="92.76" xlink:href="#c"/>
    <radialGradient id="x" cx="243.79" cy="161.82" r="0.35" xlink:href="#b"/>
    <linearGradient id="y" x1="212.39" y1="84.14" x2="212.39" y2="100.68" xlink:href="#c"/>
    <radialGradient id="z" cx="228.78" cy="201.55" r="31.98" xlink:href="#b"/>
    <linearGradient id="aa" x1="272.53" y1="64.86" x2="235.61" y2="75.54" xlink:href="#c"/>
    <radialGradient id="ab" cx="396.53" cy="177.04" r="205.94" xlink:href="#e"/>
    <radialGradient id="ac" cx="226.69" cy="128.74" r="17.77" gradientUnits="userSpaceOnUse">
      <stop offset="0.57" stop-color="#9cd9e6"/>
      <stop offset="0.63" stop-color="#99d5e3"/>
      <stop offset="0.7" stop-color="#91c9dc"/>
      <stop offset="0.77" stop-color="#83b4ce"/>
      <stop offset="0.84" stop-color="#6f98bc"/>
      <stop offset="0.9" stop-color="#5673a4"/>
      <stop offset="0.97" stop-color="#384688"/>
      <stop offset="1" stop-color="#2a327b"/>
    </radialGradient>
    <radialGradient id="ad" cx="321.44" cy="123.82" r="15.09" gradientTransform="translate(-277.04 -99.15)" xlink:href="#ac"/>
    <radialGradient id="ae" cx="153.61" cy="173.98" r="10.35" xlink:href="#ac"/>
    <clipPath id="af">
      <polygon class="a" points="129.27 2.76 130.96 2.69 131.24 9.68 129.55 9.75 129.27 2.76"/>
    </clipPath>
    <clipPath id="ag">
      <rect class="a" x="135.65" y="5.47" width="6.99" height="1.69" transform="matrix(0.06, -1, 1, 0.06, 124.06, 144.78)"/>
    </clipPath>
  </defs>
  <title>Asset 1</title>
  <g>
    <path class="b" d="M264.88,90.09A41,41,0,0,1,266,106.57v.06c-1.35,11.14-8,21.43-18.56,29A26.12,26.12,0,0,1,204.43,152a92.94,92.94,0,0,1-33.18,24.78,20.65,20.65,0,0,1-39.44,7.8,92.59,92.59,0,0,1-72.51-38.1A31.13,31.13,0,0,1,52,142a13.11,13.11,0,0,1-4.42-7.27c-3.2-.25-6.42-.4-9.64-.45l-.86,0c-7.49-.62-23.06-1.89-30.26-17.36a14.59,14.59,0,0,1-1-2.75c-.09-.33-.2-.83-.33-1.47-.19-.93-.42-2.17-.69-3.69C4.26,105.64,3.61,101.6,3,97.54,1.79,89.51.29,78.4,0,71a13,13,0,0,1,1.74-7,125.24,125.24,0,0,1,17-22.94c.23-.25.46-.5.7-.74A24.15,24.15,0,1,1,62.15,17.94c3.08-1.47,6.21-2.8,9.34-4a12.9,12.9,0,0,1,4.64-.86h.44c3.1.1,6.2.26,9.28.47a92.3,92.3,0,0,1,91-3,10.7,10.7,0,0,1,1.39-.08,13.05,13.05,0,0,1,3.35.44c4.28,1.14,8.53,2.5,12.65,4a13,13,0,0,1,8.42,11.42c.08,1.46.16,3,.24,4.48q2.36,2.66,4.52,5.48h.18l.3,0h0l2.51,0c8,0,16,.38,24,1.13,6.38.25,12.58,3.68,18.44,10.21C259.66,55.18,264.63,65.09,268,78A13,13,0,0,1,264.88,90.09Z"/>
    <circle class="c" cx="134.02" cy="92.29" r="79.3"/>
    <g>
      <g>
        <path class="d" d="M227.75,99.3a.38.38,0,0,0,0-.12q-3.56,4.13-7.39,9.22c.09,2,.23,3.89.43,5.63A34,34,0,0,0,227.75,99.3ZM195.15,106q4-6.09,8.29-12.05C200.77,97.45,198,101.48,195.15,106ZM228.22,74.6c.15.74.32,1.47.49,2.17l.22,0C228.73,76.09,228.5,75.37,228.22,74.6Z"/>
        <path class="e" d="M228.49,129.13A167.9,167.9,0,0,0,205,125.85l-.9-.06c-4.92-.72-7.7-7.91-8.91-19.79q6.36.16,12.84.77,3.35.33,6.73.78,2.82.37,5.66.83c.09,2,.23,3.89.43,5.63,0,0,0,0,0,0C221.83,122.72,224.23,128.09,228.49,129.13Z"/>
      </g>
      <g>
        <path class="f" d="M48.38,94.3c1.37,8.22,1.54,15.7.32,20.68-1.75-1.2-3.46-2.47-5.14-3.78a317.89,317.89,0,0,1-2.29-34C44.57,79.48,46.93,85.38,48.38,94.3Z"/>
        <path class="g" d="M37.12,44.84l-.36,0c-2.24-.06-5.13,1.51-8.45,5.12A112.73,112.73,0,0,0,13,70.54c.47,12.59,5.29,40.83,5.59,40.72,3.37,7.34,9.66,9.16,19.58,10,3.2-.22,9.57-2.34,10.54-6.24,1.22-5,1-12.46-.32-20.68-.35-2.1-.74-4-1.19-5.8-1.41-5.71-3.41-9.57-5.92-11.33a5.46,5.46,0,0,0-4.58-1,20.69,20.69,0,0,0,4.75-8.91,35.65,35.65,0,0,0,1.16-12C42.19,49.16,40.42,45.19,37.12,44.84Zm.29,49.56c1.06,6.62,0,11.76-4.6,11.32-2.25-.15-4.48-.36-6.67-.62q-1.53-8.23-2.61-15.93c0-.09,0-.2,0-.29q3.07-1.29,6.36-2.6c2.38-1,4.33-.13,5.7,2.2h0A17.33,17.33,0,0,1,37.41,94.41Zm-4.76-30a17.78,17.78,0,0,1,0,2.66c-.23,3.72-1.67,7.22-4.91,9.25-1.86,1.2-3.66,2.43-5.4,3.67-.49-4.38-.88-8.64-1.21-12.76,1.7-1.88,3.48-3.71,5.31-5.49C30.26,58,32.29,59.76,32.65,64.37Z"/>
        <path class="h" d="M35.55,88.48q-5.95.17-12,.69c0-.09,0-.2,0-.29q3.07-1.29,6.36-2.6C32.23,85.25,34.18,86.15,35.55,88.48Z"/>
        <path class="i" d="M37.41,94.41c1.06,6.62,0,11.76-4.6,11.32-2.25-.15-4.48-.36-6.67-.62q-1.53-8.23-2.61-15.93,6.07-.53,12-.69h0A17.33,17.33,0,0,1,37.41,94.41Z"/>
        <path class="j" d="M32.67,67c-.23,3.72-1.67,7.22-4.91,9.25-1.86,1.2-3.66,2.43-5.4,3.67-.49-4.38-.88-8.64-1.21-12.76Q27,67,32.67,67Z"/>
        <path class="k" d="M32.65,64.37a17.78,17.78,0,0,1,0,2.66Q27,67,21.14,67.18c1.7-1.88,3.48-3.71,5.31-5.49C30.26,58,32.29,59.76,32.65,64.37Z"/>
        <path class="l" d="M70.38,59.15c-.12,8-2.74,16-7.24,19.95a204.4,204.4,0,0,0-23.39-2.72,5.41,5.41,0,0,0-3.06-.16c4.42-4.54,6.46-12.9,5.91-20.91-.41-6.15-2.18-10.12-5.48-10.47A233.85,233.85,0,0,1,65,48h.07C68.87,48.08,70.52,52.41,70.38,59.15Z"/>
        <path class="m" d="M72.71,98.35c.07.84.12,1.65.17,2.47l-.89.09c.1,4.26.27,8.6.52,13-.78,5.69-2.46,9.55-5.43,10.28q-2.21-.42-4.45-.79l-.27-.14s0,.07,0,.1a165.51,165.51,0,0,0-24.21-2.13c3.2-.22,9.57-2.34,10.54-6.25,1.22-5,1-12.46-.32-20.68-1.44-8.92-3.81-14.82-7.11-17.13a5.57,5.57,0,0,0-1.52-.8,204.41,204.41,0,0,1,23.39,2.72C68.47,78.53,71.83,85.52,72.71,98.35Z"/>
      </g>
      <g>
        <path class="n" d="M123,141.54c-1.08.7-6.36.93-10.19.29.08-.21-14.74-1.61-17-4q5.55,0,11,.36A143.05,143.05,0,0,1,123,141.54Z"/>
        <path class="o" d="M123,141.54a143.05,143.05,0,0,0-16.24-3.3C94.64,86.38,84.09,50.75,76.13,26.09a256,256,0,0,1,28.47,2.55C105.84,28.47,124.55,140.84,123,141.54Z"/>
        <path class="p" d="M90.26,104.62q-.76,15-.22,29.9a155,155,0,0,0-18.38,1.21q-.36-2.58-.68-5.17c-1.1-9.28-1.8-18.34-2.19-27.11A180.75,180.75,0,0,1,90.26,104.62Z"/>
        <path class="q" d="M90.26,104.62q2.23,0,4.45,0-4.15-1.68-8.47-3.17-8.68.59-17.46,2A180.75,180.75,0,0,1,90.26,104.62Z"/>
        <path class="r" d="M76.13,26.09a125.06,125.06,0,0,0-12.56,5.63c-5,29.58-7.36,64.45-3.25,100.21a15.25,15.25,0,0,0,11.35,3.8q-.36-2.58-.68-5.17-1.62-13.43-2.19-27.11,8.78-1.42,17.46-2l.75,2.47H86.9c2.71,10.31,5.69,21.59,8.92,34,4.22,1.53,7.82,1.88,11,.36C94.63,86.38,84.08,50.75,76.13,26.09ZM73.32,53.58C75.58,61.76,78,70.8,80.73,80.81c-4.16.89-8.28,1.84-12.29,2.84.08-10,.56-19.65,1.28-28.78.32-4,.65-7.53.78-12.58l.14-.06A106.86,106.86,0,0,0,73.32,53.58Z"/>
        <path class="s" d="M73.32,53.58C75.58,61.76,78,70.8,80.73,80.81c-4.16.89-8.28,1.84-12.29,2.84.08-10,.56-19.65,1.28-28.78.32-4,.65-7.53.78-12.58l.14-.06A106.86,106.86,0,0,0,73.32,53.58Z"/>
      </g>
      <path class="t" d="M178.21,23.44q-7.1,1.33-14,3a881.36,881.36,0,0,1-2.63,113.39q6-1.75,12.27-3A656.06,656.06,0,0,0,178.21,23.44Z"/>
      <path class="u" d="M164.32,133.94q-5.46,2.79-10.51,6c-10.68,2.8-27.87,2.73-28,2.94A143.14,143.14,0,0,1,156,127.36Q160.3,130.54,164.32,133.94Z"/>
      <path class="v" d="M155.91,127.13a143,143,0,0,0-30,15.81q-4.18-59.41-9-118.78,3.67-2.89,7.49-5.68,6.84,20.36,11.85,41a516.19,516.19,0,0,1,10.08,61.29Q151.28,123.82,155.91,127.13Z"/>
      <path class="w" d="M124.38,18.49c3.87-.58,7.79-1,11.73-1.2,3.21,22.06,6.62,49.88,8.53,86q10-.71,20-1.46c.21,9.88.17,20.46-.25,31.81A154.34,154.34,0,0,1,135,137.14C132.27,84.08,127.93,46.5,124.38,18.49Z"/>
      <path class="x" d="M178.21,23.44c3.86,1,7.68,2.26,11.44,3.67a524.58,524.58,0,0,1-1.32,79.06c6.34,0,12.58,0,18.68-.22-.84,7.49-2.52,13.69-3.83,21.94-10.17,3.39-19.57,7.41-29.32,9A653.84,653.84,0,0,0,178.21,23.44Z"/>
      <path class="y" d="M238.76,112.3c-5.49.81-8-5.15-9.12-15.27L228,96.73q-4.11-.72-8.19-1.27c-.59-2-2-3.3-4.42-4.81q-2.41-1.52-5-3.26c-6.57-4.42-9.58-12.24-9.67-25.57-.12-8.27,2.11-12.67,6.31-12.51l.5,0a239.24,239.24,0,0,1,26.06,1.1c-3.95,0-6.16,4.22-6.3,12.2a54,54,0,0,0,.9,12c.15.74.32,1.47.49,2.17C230.33,83.12,233.2,88,237.2,91q2.55,2,5,3.75c3.67,2.68,5,4.68,4.45,9.21A9.2,9.2,0,0,1,238.76,112.3Z"/>
      <path class="z" d="M233.66,50.44h0"/>
      <path class="aa" d="M229.64,97l-1.89,2.26a.38.38,0,0,0,0-.12q-3.56,4.13-7.39,9.22-2.84-.46-5.66-.83-3.38-.45-6.73-.78-6.47-.62-12.84-.77,4-6.09,8.29-12.05,8.09.4,16.35,1.5,4.08.54,8.19,1.27Z"/>
      <path class="ab" d="M227.75,99.3q-3.75,4.51-7.38,9.09,3.84-5.07,7.39-9.22A.4.4,0,0,1,227.75,99.3Z"/>
      <path class="ac" d="M251.47,82.24q-4.18-1-8.34-1.82l-1.44-1.5c-3.88-4.07-5.42-7.38-5.28-11.8.06-2.42.89-3.67,2.28-3.66l1,.19h0a8.61,8.61,0,0,1,2.88,1.9C246.93,69.58,250.08,76.21,251.47,82.24Z"/>
      <path class="ad" d="M253.13,105.07c.81-7,0-13.94-6.23-20.76l-3.77-3.9-1.44-1.5c-3.88-4.07-5.42-7.38-5.28-11.8.06-2.42.89-3.67,2.28-3.66a2.84,2.84,0,0,1,1,.19h0a8.61,8.61,0,0,1,2.88,1.9c4.37,4,7.53,10.66,8.91,16.69,1.84-.55,2.21-1.43,3.91-1-1.91-7.4-5.25-17.22-12.22-24.82-3.58-4-6.91-5.91-9.5-5.95h0c-3.78,0-6,3.87-6.27,11.21,0,.32,0,.65,0,1a54,54,0,0,0,.9,12c.15.74.32,1.47.49,2.17.12.45.24.9.36,1.34,1.67,5.7,4.4,10.08,8.12,12.94q2.55,2,5,3.75c3.67,2.68,5,4.68,4.45,9.21a9.2,9.2,0,0,1-7.86,8.29c-5.49.81-8-5.15-9.12-15.27l-1.89,2.26a.38.38,0,0,0,0-.12q-3.56,4.13-7.39,9.22c.09,2,.23,3.89.43,5.63,0,0,0,0,0,0,1,8.69,3.44,14.06,7.7,15.09,1.93.48,4.26.07,7-1.31C247,121.44,252.22,112.62,253.13,105.07Z"/>
    </g>
    <path class="ae" d="M234.69,132.25a13.14,13.14,0,1,1-13.13-13.13A13.13,13.13,0,0,1,234.69,132.25Z"/>
    <circle class="af" cx="40.04" cy="27.65" r="11.15" transform="translate(-8.61 28.47) rotate(-35.59)"/>
    <path class="ag" d="M158.26,176a7.65,7.65,0,1,1-7.65-7.65A7.65,7.65,0,0,1,158.26,176Z"/>
    <g>
      <polygon class="ah" points="148.31 5.28 148.31 5.28 148.31 5.28 148.31 5.28"/>
      <polygon class="ah" points="148.31 5.28 148.31 5.29 148.31 5.28 148.31 5.28"/>
      <circle class="ah" cx="148.37" cy="5.15" transform="translate(72.28 132.63) rotate(-61.16)"/>
      <path class="ah" d="M150.31,10.14h0Z"/>
      <path class="ah" d="M150.58,6.9a3.31,3.31,0,0,1-.44-.23l.2.11Z"/>
      <path class="ah" d="M151,10.07H151l-.07,0Z"/>
      <path class="ah" d="M151.06,10h0L151,10Z"/>
      <path class="ah" d="M151.23,9.92h0l-.05.05Z"/>
      <path class="ah" d="M150.52,10.15h0Z"/>
      <path class="ah" d="M150.61,10.15h0Z"/>
      <path class="ah" d="M150.42,10.15h0Z"/>
      <path class="ah" d="M150.85,10.11h.07l-.08,0Z"/>
      <polygon class="ah" points="129.55 9.74 131.24 9.68 131.24 10.54 129.55 10.62 129.27 3.63 129.27 2.75 129.55 9.74"/>
      <path class="ah" d="M147.09,7.61a1.75,1.75,0,0,1-.11.18l0,0,0,0a0,0,0,0,1,0,0l0,0s0,0,0,0l0,0,0,0,0,0,0,0,0,0,0,0,0,0-.06,0,0,0-.07,0-.11.07-.1,0h0l-.07,0,0,0-.07,0,0,0-.06,0h0l-.07,0h0l-.08,0h-1l-.14,0h0l-1.41-.17L142.82,11l-1.67-.2V9.92l.79.1.88.1L143,9l.17-1.37.71.08.7.09h.71l.13,0h.28l.08,0h0l.07,0h0l.06,0,0,0,.07,0,0,0,.07,0h0l.1,0,.11-.06.07,0,0,0,.06,0,0,0,0,0,0,0,0,0,0,0,0-.05,0,0s0,0,0,0,0,0,0,0l0-.06h0a1.75,1.75,0,0,0,.11-.18h0a.3.3,0,0,1,0-.08s0,0,0,0l0-.06,0,0,0-.07s0,0,0,0h0a.14.14,0,0,0,0-.06l0,0a.14.14,0,0,1,0-.06h0s0,0,0,0,0,0,0-.07,0,0,0,0,0-.06,0-.09,0,0,0,0,0-.08,0-.13a1.23,1.23,0,0,0,0-.27V6.4a1.51,1.51,0,0,1,0,.3s0,.08,0,.12,0,0,0,0,0,.06,0,.08a0,0,0,0,1,0,0V7a.63.63,0,0,0,0,.07s0,0,0,0a.26.26,0,0,0,0,.07s0,0,0,0a.14.14,0,0,1,0,.07s0,0,0,0l0,.07,0,0a0,0,0,0,1,0,0s0,0,0,0,0,0,0,0a.3.3,0,0,0,0,.08Z"/>
      <path class="ah" d="M153.79,6.1V7l-1.25.7h0a2.34,2.34,0,0,0-.23-.51,2,2,0,0,0-1.36-.89l-.11,0h-.56l0,0h0l-.06,0-.08,0h0l0,0,0,0,0,0h0l0,0h0l0,.07,0,.06s0,0,0,0,0,0,0,0,0,0,0,0a.63.63,0,0,0,0,.07,1,1,0,0,0,0,.17V6h0V5.87h0v0h0v0h0v0h0v0h0v0h.09l0,0h1.06l.29.08.26.1.25.14.21.16.19.2.16.22.13.24.1.26h0Z"/>
      <polygon class="ah" points="115.79 11.55 117.45 11.24 117.45 12.12 115.79 12.43 114.47 5.55 114.47 4.7 115.79 11.55"/>
      <polygon class="ah" points="137.2 9.68 137.21 8.32 137.21 9.2 137.2 10.54 132.63 10.48 132.63 9.63 137.2 9.68"/>
      <path class="ah" d="M151.14,10h0Z"/>
      <path class="ah" d="M150.68,10.15h0Z"/>
      <polygon class="ah" points="126.5 9.95 128.19 9.77 128.19 10.63 126.5 10.81 126.21 7.92 123.58 8.19 123.49 8.2 123.49 7.33 125.32 7.14 126.21 7.05 126.3 7.96 126.5 9.95"/>
      <path class="ah" d="M143.52,5.24l-.25,2.08V6.46l.25-2.08,1,.13c.69.08,1.06.44,1.06,1v.86c0-.56-.37-.91-1.06-1h0Z"/>
      <polygon class="ah" points="122.88 10.31 123.8 10.22 123.8 11.09 122.11 11.27 121.37 4.3 121.37 3.44 122.11 10.39 122.88 10.31"/>
      <path class="ah" d="M153.09,9.24s0,0,0,0v.87a3.14,3.14,0,0,1,0,.51,0,0,0,0,0,0,0s0,0,0,.08,0,0,0,0,0,0,0,.08,0,0,0,0a.14.14,0,0,0,0,.06l0,0,0,.07a0,0,0,0,1,0,0,.14.14,0,0,0,0,.06.08.08,0,0,0,0,0l-.05.09,0,0,0,.06s0,0,0,0l0,.06,0,0,0,0h0a0,0,0,0,1,0,0h0l-.07.08h0l0,.06,0,0,0,0,0,0-.06,0,0,0-.08,0-.1.07h0L152,12l0,0-.07,0,0,0-.07,0h0l-.1,0-.12,0h0l-.08,0h-.17l-.08,0h0l-.13,0h-.91l-.15,0h0l-.15,0A3.23,3.23,0,0,1,147,10V9.17a2.43,2.43,0,0,0,.13.38,0,0,0,0,1,0,0,2.8,2.8,0,0,0,.77,1,3.56,3.56,0,0,0,.81.49,3.42,3.42,0,0,0,.48.18h0c.17,0,.34.1.53.14l.15,0h0l.15,0,.14,0H151l.13,0h0l.08,0h0l.07,0h0l.08,0h0l.12,0,.1,0h0l.07,0,0,0,.07,0,0,0,.07,0h0l.1-.07.08,0s0,0,0,0l.06,0,0,0,0,0,0,0s0,0,0,0h0l.07-.08h0l.05-.06,0,0,0-.06s0,0,0,0l0-.06,0,0,.05-.1,0-.09s0,0,0,0h0l0-.07,0,0a.14.14,0,0,1,0-.07s0,0,0,0a.63.63,0,0,1,0-.07s0,0,0,0l0-.11A2.64,2.64,0,0,0,153.09,9.24Z"/>
      <path class="ah" d="M148.13,7V6.17s0,0,0,.05a1.51,1.51,0,0,0,.09.53v.06a1.69,1.69,0,0,0,.27.47l.06.08a2.33,2.33,0,0,0,.43.39l.09.06a4.76,4.76,0,0,0,.6.32l.41.17.48.2.24.11.11.06.05,0,0,0h0l.15.11,0,0,0,0,.05,0,.08.13h0v0l0,.1v.13h0v.87a.61.61,0,0,0-.15-.38h0a1.71,1.71,0,0,0-.72-.46L149.69,9A2.14,2.14,0,0,1,148.13,7Z"/>
      <polygon class="ah" points="125.97 5.79 125.78 3.85 125.78 3.02 125.92 4.38 126.06 5.78 126.06 6.64 125.97 5.79"/>
      <path class="ah" d="M150.23,10.12h0Z"/>
      <path class="ah" d="M151.18,10h0A0,0,0,0,1,151.18,10Z"/>
      <path class="ah" d="M150.93,10.1h0A0,0,0,0,0,150.93,10.1Z"/>
      <path class="ah" d="M117.39,6.24l-1,.18V5.55l1-.18H118l.08,0,.08,0h0l.07,0a0,0,0,0,0,0,0l.07,0,.06,0h0l0,.05h0l0,.06,0,.06h0l0,.07h0a.25.25,0,0,1,0,.07l0,.08s0,0,0,0,0,.05,0,.08a0,0,0,0,0,0,0,.29.29,0,0,0,0,.09,2.28,2.28,0,0,1,0,.25v.86a2.11,2.11,0,0,0,0-.24.29.29,0,0,1,0-.09s0,0,0,0,0,0,0-.08a0,0,0,0,1,0,0l0-.08a.16.16,0,0,0,0-.07h0l0-.07h0l0-.06,0-.06h0l0-.05h0l-.06,0-.07,0h0l-.07,0h0l-.08,0-.08,0h0l-.08,0h-.55Z"/>
      <polygon class="ah" points="139.76 9.86 140.2 2.88 140.2 3.75 139.76 10.72 138.08 10.62 138.08 9.74 139.76 9.86"/>
      <path class="ah" d="M151,10.09h0A0,0,0,0,1,151,10.09Z"/>
      <polygon class="ah" points="151.28 9.88 151.27 9.88 151.28 9.87 151.28 9.88"/>
      <path class="ah" d="M120.53,6.31a0,0,0,0,0,0,0v.87a0,0,0,0,0,0,0,2.08,2.08,0,0,1,0,.43h0l0,.13c0,.08,0,.16-.08.24l0,0-.06.11a1.42,1.42,0,0,1-.14.23l0,0-.06.09-.18.18-.14.11a1.88,1.88,0,0,1-.23.16l-.15.09-.31.13-.15.06a4,4,0,0,1-.52.13h0l-1.24.23-.16,0V8.75l1-.19.4-.08a2.28,2.28,0,0,0,.45-.11l.06,0h0L119,8.3l.21-.08.07,0h0l.15-.09a.67.67,0,0,0,.14-.09l0,0,.05,0,.14-.11.09-.08h0l.08-.09.1-.13,0,0,0,0,.07-.14a1,1,0,0,0,.08-.14,0,0,0,0,1,0,0l0-.05,0-.17s0-.09,0-.14V6.67A2,2,0,0,0,120.53,6.31Z"/>
      <path class="ah" d="M150.17,10.11h0Z"/>
    </g>
    <g>
      <polygon class="a" points="125.78 2.99 127.45 2.81 128.19 9.77 126.5 9.95 126.21 7.06 123.49 7.33 123.8 10.22 122.11 10.4 121.37 3.44 123.06 3.27 123.35 6.06 126.06 5.78 125.78 2.99"/>
      <g class="ai">
        <g>
          <polygon class="a" points="129.27 2.76 130.96 2.69 131.24 9.68 129.55 9.75 129.27 2.76"/>
          <g>
            <polygon class="a" points="129.27 2.76 130.96 2.69 131.24 9.68 129.55 9.75 129.27 2.76"/>
            <g class="aj">
              <polyline class="a" points="129.55 9.75 129.27 2.76 130.96 2.69 131.24 9.68 129.55 9.75"/>
            </g>
          </g>
        </g>
      </g>
      <g class="ai">
        <polygon class="a" points="134.4 2.66 134.33 8.29 137.21 8.33 137.2 9.68 132.63 9.62 132.71 2.64 134.4 2.66"/>
      </g>
      <g class="ai">
        <g>
          <rect class="a" x="135.65" y="5.47" width="6.99" height="1.69" transform="matrix(0.06, -1, 1, 0.06, 124.06, 144.78)"/>
          <g>
            <rect class="a" x="135.65" y="5.47" width="6.99" height="1.69" transform="matrix(0.06, -1, 1, 0.06, 124.06, 144.78)"/>
            <g class="ak">
              <polyline class="a" points="139.76 9.86 139.76 9.86 138.08 9.75 138.52 2.77 140.2 2.88 139.76 9.86"/>
            </g>
          </g>
        </g>
      </g>
      <path class="a" d="M149.75,5.81l0,.07c-.09.44.14.72.85,1l1,.41c1.19.51,1.74,1.21,1.5,2.39l0,.11v0l0,.07v0l0,.07v0l0,.07v0l0,.1,0,.09,0,0,0,.06,0,0,0,.06,0,0,0,.06,0,0-.07.08,0,0-.06.06,0,0-.05,0,0,0-.06,0,0,0-.07.05-.11.07h0l-.07,0,0,0-.07,0,0,0-.07,0h0l-.1,0-.12,0h0l-.08,0h0l-.08,0h-.17l-.13,0h-.77l-.14,0-.15,0h0l-.15,0A3.25,3.25,0,0,1,147,9.18l1.39-.61a2,2,0,0,0,1.66,1.54l.11,0h.5l.16,0,.08,0,.06,0,.07,0,.06,0,.06,0,0,0,.05-.05,0-.05,0-.06,0-.07,0-.07,0-.08c.1-.51-.16-.76-.85-1l-.89-.37a2.07,2.07,0,0,1-1.51-2.43l0-.11v0l0-.07v0l0-.07v0l0-.07v0l0-.09v0l0-.07,0,0,0-.06,0,0,0-.06,0,0,.13-.15,0,0,0,0,0,0,.05,0,0,0,.06,0,.1-.07.09-.05,0,0,.06,0,0,0,.07,0h0l.2-.07h0l.07,0h0l.07,0h0l.09,0h0l.12,0h1l.1,0h0l.14,0a3,3,0,0,1,2.49,1.9l-1.25.69a2,2,0,0,0-1.59-1.4l-.11,0h-.64l-.06,0-.08,0h0l0,0,0,0,0,0,0,0,0,0,0,.06,0,.06v0l0,0Z"/>
      <path class="a" d="M120.46,5.7l0,.11c.27,1.36-.54,2.39-2.12,2.69L117,8.76l.48,2.49-1.66.31-1.32-6.87,3.1-.58a3.69,3.69,0,0,1,.56-.06h.67l.12,0h0l.06,0h0l.06,0h0l.06,0,0,0,.11,0h0l.05,0,0,0,0,0,0,0,0,0,0,0,0,0,0,0,.06.05,0,0,0,0,0,0,0,0,0,0,0,0,0,.05,0,0,0,.06,0,0,0,.05,0,0,0,.05,0,0,0,.06,0,0,0,.09v0l0,.07v0l0,.07v0l0,.07Zm-2.68,1.72c.74-.14,1.1-.59,1-1.24l0-.09v0l0-.08h0l0-.08,0-.07h0l0-.07h0l0-.06-.05-.06h0l-.05,0h0l-.06,0-.07,0h0l-.07,0h0l-.07,0-.08,0h0l-.08,0h-.55l-1,.19.39,2.06,1-.2"/>
      <path class="a" d="M145.12,3.35c1.53.19,2.43,1.16,2.27,2.48l0,.12V6l0,.08v0l0,.07v0l0,.07v0l0,.06,0,0,0,.06,0,0,0,.07,0,0,0,.07v0l-.12.18,0,0,0,.06,0,0,0,.05,0,0,0,0,0,0,0,0,0,0-.05,0,0,0-.06,0,0,0-.07,0-.11.06-.1,0h0l-.07,0h0l-.07,0h0l-.07,0h0l-.07,0h0l-.07,0h-1.12l-1.41-.17-.31,2.53-1.67-.2L142,3Zm.5,2.32c.08-.66-.3-1.08-1.05-1.17l-1-.12-.25,2.07,1,.12h.45l.1,0h0l.08,0h0l.08,0h0l.08,0,.08,0,.07-.05h0l.06-.05h0l.05-.06h0l0-.07,0-.08h0l0-.08h0l0-.08v0l0-.09h0l0-.1"/>
    </g>
  </g>
</svg>
