<svg xmlns="http://www.w3.org/2000/svg" width="62.64" height="13.87" viewBox="0 0 62.64 13.87">
  <defs>
    <style>
      .a {
        fill: #607d8b;
      }
    </style>
  </defs>
  <title>Asset 1</title>
  <g>
    <path class="a" d="M5.12,12.31c-1.13,0-1.55-.5-1.55-2.34V5.25H6.83l.42-1H3.56V1.49L1.27,2.87V4.22H0v1H1.27v5.64c0,2.18,1.13,3,2.45,3,1.55,0,2.59-.79,3.51-2.34L7,11.19A2.15,2.15,0,0,1,5.12,12.31Z"/>
    <path class="a" d="M60.51,12.31c-1.13,0-1.55-.5-1.55-2.34V5.25h3.26l.42-1H59V1.49l-2.3,1.38V4.22H55.39v1h1.27v5.64c0,2.18,1.13,3,2.45,3,1.55,0,2.59-.79,3.51-2.34l-.23-.31A2.15,2.15,0,0,1,60.51,12.31Z"/>
    <path class="a" d="M12.13,4A5.15,5.15,0,0,0,6.9,9.33c0,2.3,1.44,4.51,4.16,4.51A5.15,5.15,0,0,0,16.3,8.49C16.3,6.19,14.86,4,12.13,4Zm0,9.12c-1.69,0-2.78-2.53-2.78-5.52,0-1.15.17-2.88,1.76-2.88s2.8,2.53,2.8,5.52C13.9,11.23,13.53,13.11,12.11,13.11Z"/>
    <path class="a" d="M18.77,6.09A1.19,1.19,0,0,1,20,4.83,3.72,3.72,0,0,1,23.1,7l.11,0V3.82l-.71.4H20.4c-2,0-3.2,1.25-3.2,2.66,0,3.8,5.08,2.68,5.08,4.95,0,.86-.65,1.25-1.44,1.25A4.19,4.19,0,0,1,17.25,10H17.1l.17,3.38a9.08,9.08,0,0,0,3,.44c1.51,0,3.76-.86,3.76-3.08C24,7.21,18.77,8.07,18.77,6.09Z"/>
    <path class="a" d="M26.65,6.09a1.19,1.19,0,0,1,1.27-1.27A3.72,3.72,0,0,1,31,7l.11,0V3.82l-.71.4H28.28c-2,0-3.2,1.25-3.2,2.66,0,3.8,5.08,2.68,5.08,4.95,0,.86-.65,1.25-1.44,1.25A4.19,4.19,0,0,1,25.13,10H25l.17,3.38a9.08,9.08,0,0,0,3,.44c1.51,0,3.76-.86,3.76-3.08C31.9,7.21,26.65,8.07,26.65,6.09Z"/>
    <path class="a" d="M40.41,13.61V12.36h0V4.22H32.94V7.28h.13C34,5.83,35,4.75,36.5,4.75s1.61,1.19,1.61,2.72c-3.32,1.17-5.63,2.17-5.63,4.12a2,2,0,0,0,2.3,2.2A5.62,5.62,0,0,0,38.11,12v1.61Zm-4-1.32A1.27,1.27,0,0,1,35,11c0-.92.09-1.74,3.1-3v3.47A2.38,2.38,0,0,1,36.44,12.29Z"/>
    <path class="a" d="M42.14,12v1.65h3.72L44.44,12V0l-2.3,1.09V12Z"/>
    <path class="a" d="M50.78,4A5.15,5.15,0,0,0,45.9,9.63c.15,2.3,1.72,4.41,4.44,4.23a5.15,5.15,0,0,0,4.88-5.67C55.08,5.9,53.5,3.79,50.78,4Zm.56,9.11c-1.68.11-2.93-2.35-3.12-5.33-.07-1.15,0-2.88,1.58-3s3,2.35,3.14,5.33C53,11.08,52.76,13,51.34,13.07Z"/>
  </g>
</svg>
