<svg xmlns="http://www.w3.org/2000/svg" width="28.59" height="28.59" viewBox="0 0 28.59 28.59">
  <defs>
    <style>
      .a {
        fill: #231f20;
      }
    </style>
  </defs>
  <title>Asset 11</title>
  <g>
    <path class="a" d="M15,26.6l-13-13a.06.06,0,0,1,0-.09l.08-.07A8,8,0,0,1,10,12c1.78.62,6,4.88,6.66,6.66a8,8,0,0,1-1.46,7.89l-.07.07A.06.06,0,0,1,15,26.6Z"/>
    <path class="a" d="M16.6,17.1c-.37-1.08-4-4.75-5.12-5.12a16.41,16.41,0,0,0,6.29-6.26l5.1,5.1A16.4,16.4,0,0,0,16.6,17.1Z"/>
    <polygon class="a" points="8.88 21.61 4.4 26.06 0 28.59 2.53 24.19 6.99 19.71 8.88 21.61"/>
    <path class="a" d="M27.92,11.41a2.28,2.28,0,0,1-3.22,0L17.18,3.88A2.27,2.27,0,1,1,20.39.67l7.53,7.53A2.28,2.28,0,0,1,27.92,11.41Z"/>
  </g>
</svg>
